<?xml version="1.0" encoding="UTF-8" standalone="no"?>
<!-- Created with Inkscape (http://www.inkscape.org/) -->

<svg
   xmlns:dc="http://purl.org/dc/elements/1.1/"
   xmlns:cc="http://creativecommons.org/ns#"
   xmlns:rdf="http://www.w3.org/1999/02/22-rdf-syntax-ns#"
   xmlns:svg="http://www.w3.org/2000/svg"
   xmlns="http://www.w3.org/2000/svg"
   xmlns:sodipodi="http://sodipodi.sourceforge.net/DTD/sodipodi-0.dtd"
   xmlns:inkscape="http://www.inkscape.org/namespaces/inkscape"
   width="400"
   height="380"
   viewBox="0 0 105.83333 100.54166"
   version="1.1"
   id="svg8"
   inkscape:version="0.91 r13725"
   sodipodi:docname="CV2612.svg">
  <defs
     id="defs2" />
  <sodipodi:namedview
     id="base"
     pagecolor="#ffffff"
     bordercolor="#666666"
     borderopacity="1.0"
     inkscape:pageopacity="0.0"
     inkscape:pageshadow="2"
     inkscape:zoom="1.0381961"
     inkscape:cx="54.137673"
     inkscape:cy="253.35897"
     inkscape:document-units="px"
     inkscape:current-layer="layer3"
     showgrid="false"
     units="px"
     inkscape:snap-bbox="true"
     inkscape:snap-page="true"
     inkscape:bbox-nodes="true"
     inkscape:snap-bbox-edge-midpoints="true"
     inkscape:window-width="1920"
     inkscape:window-height="1046"
     inkscape:window-x="1920"
     inkscape:window-y="0"
     inkscape:window-maximized="1"
     showguides="true"
     inkscape:guide-bbox="true">
    <sodipodi:guide
       position="15.100728,63.743778"
       orientation="1,0"
       id="guide5722" />
    <sodipodi:guide
       position="36.081385,55.458423"
       orientation="1,0"
       id="guide5724" />
    <sodipodi:guide
       position="57.86385,49.177589"
       orientation="1,0"
       id="guide5726" />
    <sodipodi:guide
       position="79.111777,48.375781"
       orientation="1,0"
       id="guide5728" />
  </sodipodi:namedview>
  <metadata
     id="metadata5">
    <rdf:RDF>
      <cc:Work
         rdf:about="">
        <dc:format>image/svg+xml</dc:format>
        <dc:type
           rdf:resource="http://purl.org/dc/dcmitype/StillImage" />
        <dc:title></dc:title>
      </cc:Work>
    </rdf:RDF>
  </metadata>
  <g
     inkscape:label="Layer 1"
     inkscape:groupmode="layer"
     id="layer1"
     transform="translate(0,-196.45833)"
     sodipodi:insensitive="true">
    <path
       style="opacity:1;fill:#ffa4ff;fill-opacity:1;fill-rule:evenodd;stroke:none;stroke-width:0.48607069;stroke-linecap:butt;stroke-linejoin:round;stroke-miterlimit:4;stroke-dasharray:none;stroke-dashoffset:0;stroke-opacity:1;paint-order:normal"
       d="m 0,196.45831 105.83333,0 0,100.54168 -105.83333,0 z"
       id="rect817"
       inkscape:connector-curvature="0" />
    <text
       xml:space="preserve"
       style="font-style:normal;font-variant:normal;font-weight:normal;font-stretch:normal;font-size:5.95312595px;line-height:125%;font-family:Dyuthi;-inkscape-font-specification:'Dyuthi, Normal';text-align:start;letter-spacing:0px;word-spacing:0px;writing-mode:lr-tb;text-anchor:start;fill:#000000;fill-opacity:1;stroke:none;stroke-width:1px;stroke-linecap:butt;stroke-linejoin:miter;stroke-opacity:1"
       x="40.698593"
       y="295.40308"
       id="text4261"
       sodipodi:linespacing="125%"><tspan
         sodipodi:role="line"
         id="tspan4265"
         x="40.698593"
         y="295.40308">Tercer Brazo</tspan></text>
    <text
       sodipodi:linespacing="125%"
       id="text4267"
       y="201.40044"
       x="42.89085"
       style="font-style:normal;font-variant:normal;font-weight:normal;font-stretch:normal;font-size:5.95312452px;line-height:125%;font-family:Dyuthi;-inkscape-font-specification:'Dyuthi, Normal';text-align:start;letter-spacing:0px;word-spacing:0px;writing-mode:lr-tb;text-anchor:start;fill:#000000;fill-opacity:1;stroke:none;stroke-width:1px;stroke-linecap:butt;stroke-linejoin:miter;stroke-opacity:1"
       xml:space="preserve"><tspan
         sodipodi:role="line"
         id="tspan4271"
         x="42.89085"
         y="201.40044">CV2612</tspan></text>
    <path
       inkscape:connector-curvature="0"
       id="path36497"
       d="m 103.24249,283.63934 c 0,-0.43022 -0.35259,-0.78279 -0.7828,-0.78279 l -6.009987,0 c -0.43129,0 -0.78278,0.35257 -0.78278,0.78279 l 0,9.52389 c 0,0.43021 0.35149,0.78279 0.78278,0.78279 l 6.009987,0 c 0.43021,0 0.7828,-0.35258 0.7828,-0.78279 z m 0,0"
       style="fill:#000000;fill-opacity:1;fill-rule:nonzero;stroke:none;stroke-width:0.27602378" />
    <path
       style="fill:#000000;fill-opacity:1;fill-rule:nonzero;stroke:none;stroke-width:0.27602378"
       d="m 94.775823,283.63934 c 0,-0.43022 -0.352587,-0.78279 -0.782797,-0.78279 l -6.009987,0 c -0.43129,0 -0.78278,0.35257 -0.78278,0.78279 l 0,9.52389 c 0,0.43021 0.35149,0.78279 0.78278,0.78279 l 6.009987,0 c 0.43021,0 0.782797,-0.35258 0.782797,-0.78279 z m 0,0"
       id="path4701"
       inkscape:connector-curvature="0" />
  </g>
  <g
     inkscape:groupmode="layer"
     id="layer2"
     inkscape:label="Layer 2"
     style="display:inline"
     sodipodi:insensitive="true">
    <path
       style="fill:none;fill-rule:evenodd;stroke:#000000;stroke-width:0.19045214px;stroke-linecap:butt;stroke-linejoin:miter;stroke-opacity:1"
       d="m 109.63148,14.221051 42.57968,0.136039"
       id="path4361"
       inkscape:connector-curvature="0" />
    <path
       style="fill:none;fill-rule:evenodd;stroke:#000000;stroke-width:0.19045214px;stroke-linecap:butt;stroke-linejoin:miter;stroke-opacity:1"
       d="m 116.29731,14.085013 6.66583,-12.3793852 6.12168,5.4414873 12.51543,0.9522631 8.43432,6.1216728"
       id="path4363"
       inkscape:connector-curvature="0" />
    <path
       style="fill:none;fill-rule:evenodd;stroke:#000000;stroke-width:0.19045214px;stroke-linecap:butt;stroke-linejoin:miter;stroke-opacity:1"
       d="m 122.96314,1.7056278 c 0.30608,0.1020272 8.97846,0 8.97846,0"
       id="path4365"
       inkscape:connector-curvature="0" />
    <path
       style="fill:none;fill-rule:evenodd;stroke:#000000;stroke-width:0.19045214px;stroke-linecap:butt;stroke-linejoin:miter;stroke-opacity:1"
       d="m 129.08482,7.1811266 9.99874,0"
       id="path4367"
       inkscape:connector-curvature="0" />
    <path
       style="fill:none;fill-rule:evenodd;stroke:#000000;stroke-width:0.19045214px;stroke-linecap:butt;stroke-linejoin:miter;stroke-opacity:1"
       d="m 141.66827,8.1333825 7.85616,0"
       id="path4369"
       inkscape:connector-curvature="0" />
    <path
       style="fill:none;fill-rule:evenodd;stroke:#000000;stroke-width:0.19045214px;stroke-linecap:butt;stroke-linejoin:miter;stroke-opacity:1"
       d="m 113.95067,14.221051 0,-12.6174503"
       id="path4371"
       inkscape:connector-curvature="0" />
    <path
       style="fill:none;fill-rule:evenodd;stroke:#000000;stroke-width:0.19045214px;stroke-linecap:butt;stroke-linejoin:miter;stroke-opacity:1"
       d="m 126.80619,7.4191923 0,6.6658207"
       id="path4373"
       inkscape:connector-curvature="0" />
    <path
       style="fill:none;fill-rule:evenodd;stroke:#000000;stroke-width:0.19045214px;stroke-linecap:butt;stroke-linejoin:miter;stroke-opacity:1"
       d="m 113.27048,2.3518023 c 0.17005,-0.1360386 0.57816,-0.7141974 0.57816,-0.7141974 l 0.64617,0.7482088"
       id="path4377"
       inkscape:connector-curvature="0" />
    <path
       style="fill:none;fill-rule:evenodd;stroke:#000000;stroke-width:0.19045214px;stroke-linecap:butt;stroke-linejoin:miter;stroke-opacity:1"
       d="m 126.18773,8.2878197 c 0.17005,-0.1360386 0.57816,-0.7141974 0.57816,-0.7141974 l 0.64618,0.7482089"
       id="path4377-3"
       inkscape:connector-curvature="0" />
    <path
       style="fill:none;fill-rule:evenodd;stroke:#000000;stroke-width:0.19218229px;stroke-linecap:butt;stroke-linejoin:miter;stroke-opacity:1"
       d="m 114.57474,13.344535 c -0.17159,0.137277 -0.58341,0.720683 -0.58341,0.720683 l -0.65205,-0.755004"
       id="path4377-4"
       inkscape:connector-curvature="0" />
    <path
       inkscape:connector-curvature="0"
       id="path4400"
       d="m 127.43027,13.589403 c -0.17159,0.137277 -0.58341,0.720683 -0.58341,0.720683 l -0.65205,-0.755004"
       style="fill:none;fill-rule:evenodd;stroke:#000000;stroke-width:0.19218229px;stroke-linecap:butt;stroke-linejoin:miter;stroke-opacity:1" />
    <g
       id="text4402"
       style="font-style:normal;font-weight:normal;font-size:2.64583325px;line-height:125%;font-family:sans-serif;letter-spacing:0px;word-spacing:0px;writing-mode:lr-tb;fill:#000000;fill-opacity:1;stroke:none;stroke-width:1px;stroke-linecap:butt;stroke-linejoin:miter;stroke-opacity:1"
       transform="matrix(0.71981915,0,0,0.71981915,89.497964,-75.699563)">
      <path
         inkscape:connector-curvature="0"
         id="path5419"
         d="m 29.238155,114.10987 1.631684,0 0,0.21962 -0.684713,0 0,1.7092 -0.262258,0 0,-1.7092 -0.684713,0 0,-0.21962 z" />
      <path
         inkscape:connector-curvature="0"
         id="path5421"
         d="m 31.123053,114.10987 0.260966,0 0,1.70919 0.939219,0 0,0.21963 -1.200185,0 0,-1.92882 z" />
    </g>
    <g
       id="text4406"
       style="font-style:normal;font-weight:normal;font-size:2.64583325px;line-height:125%;font-family:sans-serif;letter-spacing:0px;word-spacing:0px;writing-mode:lr-tb;fill:#000000;fill-opacity:1;stroke:none;stroke-width:1px;stroke-linecap:butt;stroke-linejoin:miter;stroke-opacity:1"
       transform="matrix(0.71981915,0,0,0.71981915,89.497964,-75.699563)">
      <path
         inkscape:connector-curvature="0"
         id="path5424"
         d="m 46.700672,119.40154 1.631683,0 0,0.21962 -0.684712,0 0,1.7092 -0.262258,0 0,-1.7092 -0.684713,0 0,-0.21962 z" />
      <path
         inkscape:connector-curvature="0"
         id="path5426"
         d="m 48.654041,121.11074 0.426331,0 0,-1.47149 -0.463796,0.093 0,-0.23771 0.461212,-0.093 0.260966,0 0,1.7092 0.426331,0 0,0.21962 -1.111044,0 0,-0.21962 z" />
      <path
         inkscape:connector-curvature="0"
         id="path5428"
         d="m 50.270222,119.40154 0.260966,0 0,1.7092 0.939219,0 0,0.21962 -1.200185,0 0,-1.92882 z" />
    </g>
    <g
       id="text4412"
       style="font-style:normal;font-weight:normal;font-size:2.64583325px;line-height:125%;font-family:sans-serif;letter-spacing:0px;word-spacing:0px;writing-mode:lr-tb;fill:#000000;fill-opacity:1;stroke:none;stroke-width:1px;stroke-linecap:butt;stroke-linejoin:miter;stroke-opacity:1"
       transform="matrix(0.71981915,0,0,0.71981915,89.497964,-75.699563)">
      <path
         inkscape:connector-curvature="0"
         id="path5431"
         d="m 50.404067,108.50349 0,1.49991 0.315226,0 q 0.3992,0 0.583944,-0.18087 0.186035,-0.18086 0.186035,-0.57102 0,-0.38758 -0.186035,-0.56715 -0.184744,-0.18087 -0.583944,-0.18087 l -0.315226,0 z m -0.260966,-0.21446 0.536143,0 q 0.560689,0 0.822947,0.23384 0.262258,0.23254 0.262258,0.72864 0,0.49868 -0.26355,0.73251 -0.26355,0.23384 -0.821655,0.23384 l -0.536143,0 0,-1.92883 z" />
      <path
         inkscape:connector-curvature="0"
         id="path5433"
         d="m 52.247623,109.99823 0.426331,0 0,-1.47148 -0.463796,0.093 0,-0.23771 0.461212,-0.093 0.260966,0 0,1.7092 0.426331,0 0,0.21963 -1.111044,0 0,-0.21963 z" />
      <path
         inkscape:connector-curvature="0"
         id="path5435"
         d="m 54.778476,109.31352 q 0.08398,0.0284 0.162781,0.12144 0.0801,0.093 0.160197,0.2558 l 0.264842,0.5271 -0.280345,0 -0.246755,-0.4948 q -0.0956,-0.19379 -0.186035,-0.25709 -0.08914,-0.0633 -0.244171,-0.0633 l -0.28422,0 0,0.8152 -0.260966,0 0,-1.92883 0.589111,0 q 0.330729,0 0.49351,0.13824 0.162781,0.13823 0.162781,0.41729 0,0.18216 -0.08527,0.3023 -0.08397,0.12015 -0.245463,0.16666 z m -0.653706,-0.81003 0,0.68471 0.328145,0 q 0.188619,0 0.28422,-0.0865 0.09689,-0.0879 0.09689,-0.25709 0,-0.16924 -0.09689,-0.25451 -0.0956,-0.0866 -0.28422,-0.0866 l -0.328145,0 z" />
    </g>
    <g
       id="text4416"
       style="font-style:normal;font-weight:normal;font-size:2.64583325px;line-height:125%;font-family:sans-serif;letter-spacing:0px;word-spacing:0px;writing-mode:lr-tb;fill:#000000;fill-opacity:1;stroke:none;stroke-width:1px;stroke-linecap:butt;stroke-linejoin:miter;stroke-opacity:1"
       transform="matrix(0.71981915,0,0,0.71981915,89.497964,-75.699563)">
      <path
         inkscape:connector-curvature="0"
         id="path5438"
         d="m 62.045745,112.73682 0,1.49991 0.315226,0 q 0.3992,0 0.583943,-0.18087 0.186036,-0.18087 0.186036,-0.57102 0,-0.38758 -0.186036,-0.56715 -0.184743,-0.18087 -0.583943,-0.18087 l -0.315226,0 z m -0.260966,-0.21446 0.536143,0 q 0.560689,0 0.822947,0.23384 0.262258,0.23254 0.262258,0.72864 0,0.49868 -0.26355,0.73251 -0.26355,0.23384 -0.821655,0.23384 l -0.536143,0 0,-1.92883 z" />
      <path
         inkscape:connector-curvature="0"
         id="path5440"
         d="m 64.068877,114.23156 0.910797,0 0,0.21963 -1.224732,0 0,-0.21963 q 0.14857,-0.15374 0.404368,-0.41212 0.257091,-0.25967 0.322978,-0.3346 0.125316,-0.14082 0.174408,-0.23771 0.05039,-0.0982 0.05039,-0.1925 0,-0.15374 -0.108521,-0.25063 -0.107228,-0.0969 -0.280344,-0.0969 -0.122732,0 -0.259675,0.0426 -0.13565,0.0426 -0.290679,0.12919 l 0,-0.26355 q 0.157613,-0.0633 0.294555,-0.0956 0.136943,-0.0323 0.250631,-0.0323 0.299723,0 0.478007,0.14986 0.178284,0.14987 0.178284,0.4005 0,0.11885 -0.04522,0.22608 -0.04393,0.10594 -0.161489,0.25063 -0.0323,0.0375 -0.205414,0.21704 -0.173116,0.17829 -0.488342,0.49997 z" />
      <path
         inkscape:connector-curvature="0"
         id="path5442"
         d="m 66.420154,113.54685 q 0.08397,0.0284 0.162781,0.12144 0.0801,0.093 0.160197,0.2558 l 0.264842,0.5271 -0.280345,0 -0.246755,-0.4948 q -0.0956,-0.19379 -0.186035,-0.25709 -0.08914,-0.0633 -0.244171,-0.0633 l -0.284221,0 0,0.8152 -0.260966,0 0,-1.92883 0.589112,0 q 0.330729,0 0.49351,0.13824 0.16278,0.13823 0.16278,0.41729 0,0.18216 -0.08527,0.3023 -0.08397,0.12015 -0.245463,0.16666 z m -0.653707,-0.81003 0,0.68471 0.328146,0 q 0.188619,0 0.28422,-0.0866 0.09689,-0.0879 0.09689,-0.25709 0,-0.16924 -0.09689,-0.25451 -0.0956,-0.0866 -0.28422,-0.0866 l -0.328146,0 z" />
    </g>
    <g
       id="text4420"
       style="font-style:normal;font-weight:normal;font-size:2.64583325px;line-height:125%;font-family:sans-serif;letter-spacing:0px;word-spacing:0px;writing-mode:lr-tb;fill:#000000;fill-opacity:1;stroke:none;stroke-width:1px;stroke-linecap:butt;stroke-linejoin:miter;stroke-opacity:1"
       transform="matrix(0.71981915,0,0,0.71981915,89.497964,-75.699563)">
      <path
         inkscape:connector-curvature="0"
         id="path5445"
         d="m 78.574463,118.30932 q 0.08397,0.0284 0.162781,0.12144 0.0801,0.093 0.160197,0.25579 l 0.264841,0.5271 -0.280344,0 -0.246755,-0.4948 q -0.0956,-0.19378 -0.186035,-0.25709 -0.08914,-0.0633 -0.244172,-0.0633 l -0.28422,0 0,0.81519 -0.260966,0 0,-1.92882 0.589111,0 q 0.330729,0 0.49351,0.13824 0.162781,0.13823 0.162781,0.41728 0,0.18216 -0.08527,0.30231 -0.08397,0.12015 -0.245463,0.16666 z m -0.653707,-0.81003 0,0.68471 0.328145,0 q 0.188619,0 0.284221,-0.0866 0.09689,-0.0879 0.09689,-0.25709 0,-0.16924 -0.09689,-0.2545 -0.0956,-0.0866 -0.284221,-0.0866 l -0.328145,0 z" />
      <path
         inkscape:connector-curvature="0"
         id="path5447"
         d="m 80.414144,118.30932 q 0.08397,0.0284 0.162781,0.12144 0.0801,0.093 0.160196,0.25579 l 0.264842,0.5271 -0.280344,0 -0.246755,-0.4948 q -0.0956,-0.19378 -0.186036,-0.25709 -0.08914,-0.0633 -0.244171,-0.0633 l -0.28422,0 0,0.81519 -0.260966,0 0,-1.92882 0.589111,0 q 0.330729,0 0.49351,0.13824 0.162781,0.13823 0.162781,0.41728 0,0.18216 -0.08527,0.30231 -0.08397,0.12015 -0.245463,0.16666 z m -0.653707,-0.81003 0,0.68471 0.328145,0 q 0.188619,0 0.284221,-0.0866 0.09689,-0.0879 0.09689,-0.25709 0,-0.16924 -0.09689,-0.2545 -0.0956,-0.0866 -0.284221,-0.0866 l -0.328145,0 z" />
    </g>
    <g
       id="text4424"
       style="font-style:normal;font-weight:normal;font-size:2.64583325px;line-height:125%;font-family:sans-serif;letter-spacing:0px;word-spacing:0px;writing-mode:lr-tb;fill:#000000;fill-opacity:1;stroke:none;stroke-width:1px;stroke-linecap:butt;stroke-linejoin:miter;stroke-opacity:1"
       transform="matrix(0.71981915,0,0,0.71981915,89.497964,-75.699563)">
      <path
         inkscape:connector-curvature="0"
         id="path5450"
         d="m 39.675276,122.30443 -0.353983,0.95989 0.709259,0 -0.355276,-0.95989 z m -0.147277,-0.25709 0.295847,0 0.735097,1.92882 -0.271301,0 -0.1757,-0.4948 -0.869456,0 -0.1757,0.4948 -0.275177,0 0.73639,-1.92882 z" />
      <path
         inkscape:connector-curvature="0"
         id="path5452"
         d="m 41.753961,123.07182 q 0.08397,0.0284 0.162781,0.12144 0.0801,0.093 0.160197,0.2558 l 0.264841,0.5271 -0.280344,0 -0.246755,-0.4948 q -0.0956,-0.19379 -0.186036,-0.25709 -0.08914,-0.0633 -0.244171,-0.0633 l -0.28422,0 0,0.8152 -0.260966,0 0,-1.92882 0.589111,0 q 0.330729,0 0.49351,0.13823 0.162781,0.13823 0.162781,0.41729 0,0.18216 -0.08527,0.3023 -0.08397,0.12015 -0.245463,0.16666 z m -0.653707,-0.81003 0,0.68472 0.328145,0 q 0.188619,0 0.284221,-0.0866 0.09689,-0.0879 0.09689,-0.25709 0,-0.16924 -0.09689,-0.25451 -0.0956,-0.0866 -0.284221,-0.0866 l -0.328145,0 z" />
    </g>
    <path
       inkscape:connector-curvature="0"
       id="path5455"
       style="font-style:normal;font-weight:normal;font-size:3.30729151px;line-height:125%;font-family:sans-serif;text-align:center;letter-spacing:0px;word-spacing:0px;text-anchor:middle;fill:#000000;fill-opacity:1;stroke:none;stroke-width:1px;stroke-linecap:butt;stroke-linejoin:miter;stroke-opacity:1"
       d="m 23.907321,9.7030798 -0.442479,1.1998622 0.886574,0 -0.444095,-1.1998622 z m -0.184097,-0.321363 0.369809,0 0.918872,2.4110292 -0.339127,0 -0.219624,-0.618503 -1.08682,0 -0.219625,0.618503 -0.343971,0 0.920486,-2.4110292 z" />
    <path
       inkscape:connector-curvature="0"
       id="path5457"
       style="font-style:normal;font-weight:normal;font-size:3.30729151px;line-height:125%;font-family:sans-serif;text-align:center;letter-spacing:0px;word-spacing:0px;text-anchor:middle;fill:#000000;fill-opacity:1;stroke:none;stroke-width:1px;stroke-linecap:butt;stroke-linejoin:miter;stroke-opacity:1"
       d="m 26.505677,10.662324 q 0.104968,0.03553 0.203476,0.151799 0.100123,0.116272 0.200246,0.319748 l 0.331052,0.658875 -0.35043,0 -0.308444,-0.618503 q -0.119502,-0.242233 -0.232544,-0.321362 -0.111427,-0.07913 -0.305214,-0.07913 l -0.355276,0 0,1.018995 -0.326207,0 0,-2.4110292 0.736389,0 q 0.413412,0 0.616888,0.172793 0.203476,0.172793 0.203476,0.5216092 0,0.2277 -0.106583,0.377884 -0.104968,0.150185 -0.306829,0.208321 z m -0.817134,-1.0125352 0,0.8558912 0.410182,0 q 0.235774,0 0.355276,-0.108198 0.121116,-0.109812 0.121116,-0.321363 0,-0.2115502 -0.121116,-0.3181332 -0.119502,-0.108197 -0.355276,-0.108197 l -0.410182,0 z" />
    <path
       inkscape:connector-curvature="0"
       id="path5459"
       style="font-style:normal;font-weight:normal;font-size:3.30729151px;line-height:125%;font-family:sans-serif;text-align:center;letter-spacing:0px;word-spacing:0px;text-anchor:middle;fill:#000000;fill-opacity:1;stroke:none;stroke-width:1px;stroke-linecap:butt;stroke-linejoin:miter;stroke-opacity:1"
       d="m 23.116026,21.78406 2.039604,0 0,0.274531 -0.855891,0 0,2.136498 -0.327822,0 0,-2.136498 -0.855891,0 0,-0.274531 z" />
    <path
       inkscape:connector-curvature="0"
       id="path5461"
       style="font-style:normal;font-weight:normal;font-size:3.30729151px;line-height:125%;font-family:sans-serif;text-align:center;letter-spacing:0px;word-spacing:0px;text-anchor:middle;fill:#000000;fill-opacity:1;stroke:none;stroke-width:1px;stroke-linecap:butt;stroke-linejoin:miter;stroke-opacity:1"
       d="m 25.472148,21.78406 0.326208,0 0,2.136498 1.174024,0 0,0.274531 -1.500232,0 0,-2.411029 z" />
    <path
       inkscape:connector-curvature="0"
       id="path5463"
       style="font-style:normal;font-weight:normal;font-size:3.30729151px;line-height:125%;font-family:sans-serif;text-align:center;letter-spacing:0px;word-spacing:0px;text-anchor:middle;fill:#000000;fill-opacity:1;stroke:none;stroke-width:1px;stroke-linecap:butt;stroke-linejoin:miter;stroke-opacity:1"
       d="m 22.232682,34.454475 0,1.874886 0.394033,0 q 0.499,0 0.729929,-0.226085 0.232544,-0.226084 0.232544,-0.713781 0,-0.484466 -0.232544,-0.708936 -0.230929,-0.226084 -0.729929,-0.226084 l -0.394033,0 z m -0.326208,-0.268071 0.670179,0 q 0.700862,0 1.028684,0.292294 0.327822,0.29068 0.327822,0.910797 0,0.623347 -0.329437,0.915642 -0.329437,0.292295 -1.027069,0.292295 l -0.670179,0 0,-2.411028 z" />
    <path
       inkscape:connector-curvature="0"
       id="path5465"
       style="font-style:normal;font-weight:normal;font-size:3.30729151px;line-height:125%;font-family:sans-serif;text-align:center;letter-spacing:0px;word-spacing:0px;text-anchor:middle;fill:#000000;fill-opacity:1;stroke:none;stroke-width:1px;stroke-linecap:butt;stroke-linejoin:miter;stroke-opacity:1"
       d="m 24.537128,36.322901 0.532913,0 0,-1.839358 -0.579745,0.116272 0,-0.297139 0.576515,-0.116272 0.326208,0 0,2.136497 0.532913,0 0,0.274531 -1.388804,0 0,-0.274531 z" />
    <path
       inkscape:connector-curvature="0"
       id="path5467"
       style="font-style:normal;font-weight:normal;font-size:3.30729151px;line-height:125%;font-family:sans-serif;text-align:center;letter-spacing:0px;word-spacing:0px;text-anchor:middle;fill:#000000;fill-opacity:1;stroke:none;stroke-width:1px;stroke-linecap:butt;stroke-linejoin:miter;stroke-opacity:1"
       d="m 27.700695,35.46701 q 0.104968,0.03553 0.203476,0.1518 0.100123,0.116272 0.200246,0.319748 l 0.331052,0.658874 -0.350431,0 -0.308443,-0.618502 q -0.119502,-0.242234 -0.232544,-0.321363 -0.111428,-0.07913 -0.305214,-0.07913 l -0.355276,0 0,1.018995 -0.326207,0 0,-2.411028 0.736389,0 q 0.413411,0 0.616887,0.172793 0.203476,0.172793 0.203476,0.521609 0,0.227699 -0.106582,0.377883 -0.104968,0.150185 -0.306829,0.208321 z m -0.817134,-1.012535 0,0.855891 0.410182,0 q 0.235774,0 0.355275,-0.108198 0.121117,-0.109812 0.121117,-0.321362 0,-0.211551 -0.121117,-0.318133 -0.119501,-0.108198 -0.355275,-0.108198 l -0.410182,0 z" />
    <path
       inkscape:connector-curvature="0"
       id="path5469"
       style="font-style:normal;font-weight:normal;font-size:3.30729151px;line-height:125%;font-family:sans-serif;text-align:center;letter-spacing:0px;word-spacing:0px;text-anchor:middle;fill:#000000;fill-opacity:1;stroke:none;stroke-width:1px;stroke-linecap:butt;stroke-linejoin:miter;stroke-opacity:1"
       d="m 22.063119,46.588747 2.039604,0 0,0.274531 -0.855891,0 0,2.136497 -0.327822,0 0,-2.136497 -0.855891,0 0,-0.274531 z" />
    <path
       inkscape:connector-curvature="0"
       id="path5471"
       style="font-style:normal;font-weight:normal;font-size:3.30729151px;line-height:125%;font-family:sans-serif;text-align:center;letter-spacing:0px;word-spacing:0px;text-anchor:middle;fill:#000000;fill-opacity:1;stroke:none;stroke-width:1px;stroke-linecap:butt;stroke-linejoin:miter;stroke-opacity:1"
       d="m 24.50483,48.725244 0.532913,0 0,-1.839358 -0.579745,0.116272 0,-0.297139 0.576515,-0.116272 0.326208,0 0,2.136497 0.532914,0 0,0.274531 -1.388805,0 0,-0.274531 z" />
    <path
       inkscape:connector-curvature="0"
       id="path5473"
       style="font-style:normal;font-weight:normal;font-size:3.30729151px;line-height:125%;font-family:sans-serif;text-align:center;letter-spacing:0px;word-spacing:0px;text-anchor:middle;fill:#000000;fill-opacity:1;stroke:none;stroke-width:1px;stroke-linecap:butt;stroke-linejoin:miter;stroke-opacity:1"
       d="m 26.525056,46.588747 0.326208,0 0,2.136497 1.174023,0 0,0.274531 -1.500231,0 0,-2.411028 z" />
    <path
       inkscape:connector-curvature="0"
       id="path5475"
       style="font-style:normal;font-weight:normal;font-size:3.30729151px;line-height:125%;font-family:sans-serif;text-align:center;letter-spacing:0px;word-spacing:0px;text-anchor:middle;fill:#000000;fill-opacity:1;stroke:none;stroke-width:1px;stroke-linecap:butt;stroke-linejoin:miter;stroke-opacity:1"
       d="m 22.232682,59.259161 0,1.874886 0.394033,0 q 0.499,0 0.729929,-0.226085 0.232544,-0.226084 0.232544,-0.71378 0,-0.484467 -0.232544,-0.708936 -0.230929,-0.226085 -0.729929,-0.226085 l -0.394033,0 z m -0.326208,-0.268071 0.670179,0 q 0.700862,0 1.028684,0.292295 0.327822,0.29068 0.327822,0.910797 0,0.623347 -0.329437,0.915641 -0.329437,0.292295 -1.027069,0.292295 l -0.670179,0 0,-2.411028 z" />
    <path
       inkscape:connector-curvature="0"
       id="path5477"
       style="font-style:normal;font-weight:normal;font-size:3.30729151px;line-height:125%;font-family:sans-serif;text-align:center;letter-spacing:0px;word-spacing:0px;text-anchor:middle;fill:#000000;fill-opacity:1;stroke:none;stroke-width:1px;stroke-linecap:butt;stroke-linejoin:miter;stroke-opacity:1"
       d="m 24.761597,61.127587 1.138497,0 0,0.274531 -1.530915,0 0,-0.274531 q 0.185713,-0.192171 0.50546,-0.515149 0.321363,-0.324593 0.403723,-0.418256 0.156644,-0.176023 0.21801,-0.29714 0.06298,-0.122731 0.06298,-0.240618 0,-0.192172 -0.135651,-0.313288 -0.134036,-0.121117 -0.350431,-0.121117 -0.153414,0 -0.324592,0.05329 -0.169564,0.05329 -0.36335,0.161489 l 0,-0.329437 q 0.197016,-0.07913 0.368194,-0.119502 0.171178,-0.04037 0.313289,-0.04037 0.374654,0 0.597508,0.187327 0.222855,0.187327 0.222855,0.500615 0,0.14857 -0.05652,0.282606 -0.05491,0.132421 -0.201862,0.313288 -0.04037,0.04683 -0.256767,0.271301 -0.216395,0.222855 -0.610428,0.624962 z" />
    <path
       inkscape:connector-curvature="0"
       id="path5479"
       style="font-style:normal;font-weight:normal;font-size:3.30729151px;line-height:125%;font-family:sans-serif;text-align:center;letter-spacing:0px;word-spacing:0px;text-anchor:middle;fill:#000000;fill-opacity:1;stroke:none;stroke-width:1px;stroke-linecap:butt;stroke-linejoin:miter;stroke-opacity:1"
       d="m 27.700695,60.271696 q 0.104968,0.03553 0.203476,0.1518 0.100123,0.116272 0.200246,0.319748 l 0.331052,0.658874 -0.350431,0 -0.308443,-0.618502 q -0.119502,-0.242233 -0.232544,-0.321363 -0.111428,-0.07913 -0.305214,-0.07913 l -0.355276,0 0,1.018994 -0.326207,0 0,-2.411028 0.736389,0 q 0.413411,0 0.616887,0.172793 0.203476,0.172793 0.203476,0.521609 0,0.227699 -0.106582,0.377884 -0.104968,0.150184 -0.306829,0.20832 z m -0.817134,-1.012535 0,0.855891 0.410182,0 q 0.235774,0 0.355275,-0.108197 0.121117,-0.109813 0.121117,-0.321363 0,-0.21155 -0.121117,-0.318133 -0.119501,-0.108198 -0.355275,-0.108198 l -0.410182,0 z" />
    <path
       inkscape:connector-curvature="0"
       id="path5481"
       style="font-style:normal;font-weight:normal;font-size:3.30729151px;line-height:125%;font-family:sans-serif;text-align:center;letter-spacing:0px;word-spacing:0px;text-anchor:middle;fill:#000000;fill-opacity:1;stroke:none;stroke-width:1px;stroke-linecap:butt;stroke-linejoin:miter;stroke-opacity:1"
       d="m 24.225454,72.67404 q 0.104968,0.03553 0.203476,0.151799 0.100123,0.116272 0.200246,0.319748 l 0.331053,0.658874 -0.350431,0 -0.308444,-0.618502 q -0.119502,-0.242233 -0.232544,-0.321363 -0.111427,-0.07913 -0.305214,-0.07913 l -0.355275,0 0,1.018994 -0.326208,0 0,-2.411028 0.736389,0 q 0.413412,0 0.616888,0.172793 0.203476,0.172793 0.203476,0.521609 0,0.227699 -0.106583,0.377884 -0.104968,0.150185 -0.306829,0.208321 z m -0.817133,-1.012535 0,0.85589 0.410181,0 q 0.235774,0 0.355276,-0.108197 0.121116,-0.109813 0.121116,-0.321363 0,-0.21155 -0.121116,-0.318133 -0.119502,-0.108197 -0.355276,-0.108197 l -0.410181,0 z" />
    <path
       inkscape:connector-curvature="0"
       id="path5483"
       style="font-style:normal;font-weight:normal;font-size:3.30729151px;line-height:125%;font-family:sans-serif;text-align:center;letter-spacing:0px;word-spacing:0px;text-anchor:middle;fill:#000000;fill-opacity:1;stroke:none;stroke-width:1px;stroke-linecap:butt;stroke-linejoin:miter;stroke-opacity:1"
       d="m 26.525056,72.67404 q 0.104968,0.03553 0.203476,0.151799 0.100123,0.116272 0.200246,0.319748 l 0.331052,0.658874 -0.350431,0 -0.308443,-0.618502 q -0.119502,-0.242233 -0.232544,-0.321363 -0.111428,-0.07913 -0.305214,-0.07913 l -0.355276,0 0,1.018994 -0.326208,0 0,-2.411028 0.73639,0 q 0.413411,0 0.616887,0.172793 0.203476,0.172793 0.203476,0.521609 0,0.227699 -0.106582,0.377884 -0.104968,0.150185 -0.306829,0.208321 z m -0.817134,-1.012535 0,0.85589 0.410182,0 q 0.235774,0 0.355275,-0.108197 0.121117,-0.109813 0.121117,-0.321363 0,-0.21155 -0.121117,-0.318133 -0.119501,-0.108197 -0.355275,-0.108197 l -0.410182,0 z" />
    <path
       inkscape:connector-curvature="0"
       id="path5486"
       style="font-style:normal;font-weight:normal;font-size:3.30729151px;line-height:125%;font-family:sans-serif;text-align:center;letter-spacing:0px;word-spacing:0px;text-anchor:middle;fill:#000000;fill-opacity:1;stroke:none;stroke-width:1px;stroke-linecap:butt;stroke-linejoin:miter;stroke-opacity:1"
       d="m 45.073988,9.7030798 -0.44248,1.1998622 0.886574,0 -0.444094,-1.1998622 z m -0.184098,-0.321363 0.36981,0 0.918871,2.4110292 -0.339126,0 -0.219625,-0.618503 -1.08682,0 -0.219625,0.618503 -0.343971,0 0.920486,-2.4110292 z" />
    <path
       inkscape:connector-curvature="0"
       id="path5488"
       style="font-style:normal;font-weight:normal;font-size:3.30729151px;line-height:125%;font-family:sans-serif;text-align:center;letter-spacing:0px;word-spacing:0px;text-anchor:middle;fill:#000000;fill-opacity:1;stroke:none;stroke-width:1px;stroke-linecap:butt;stroke-linejoin:miter;stroke-opacity:1"
       d="m 47.672343,10.662324 q 0.104968,0.03553 0.203476,0.151799 0.100123,0.116272 0.200246,0.319748 l 0.331052,0.658875 -0.35043,0 -0.308444,-0.618503 q -0.119502,-0.242233 -0.232544,-0.321362 -0.111427,-0.07913 -0.305214,-0.07913 l -0.355275,0 0,1.018995 -0.326208,0 0,-2.4110292 0.736389,0 q 0.413412,0 0.616888,0.172793 0.203476,0.172793 0.203476,0.5216092 0,0.2277 -0.106583,0.377884 -0.104968,0.150185 -0.306829,0.208321 z m -0.817133,-1.0125352 0,0.8558912 0.410181,0 q 0.235774,0 0.355276,-0.108198 0.121116,-0.109812 0.121116,-0.321363 0,-0.2115502 -0.121116,-0.3181332 -0.119502,-0.108197 -0.355276,-0.108197 l -0.410181,0 z" />
    <path
       inkscape:connector-curvature="0"
       id="path5490"
       style="font-style:normal;font-weight:normal;font-size:3.30729151px;line-height:125%;font-family:sans-serif;text-align:center;letter-spacing:0px;word-spacing:0px;text-anchor:middle;fill:#000000;fill-opacity:1;stroke:none;stroke-width:1px;stroke-linecap:butt;stroke-linejoin:miter;stroke-opacity:1"
       d="m 44.282692,21.78406 2.039605,0 0,0.274531 -0.855891,0 0,2.136498 -0.327823,0 0,-2.136498 -0.855891,0 0,-0.274531 z" />
    <path
       inkscape:connector-curvature="0"
       id="path5492"
       style="font-style:normal;font-weight:normal;font-size:3.30729151px;line-height:125%;font-family:sans-serif;text-align:center;letter-spacing:0px;word-spacing:0px;text-anchor:middle;fill:#000000;fill-opacity:1;stroke:none;stroke-width:1px;stroke-linecap:butt;stroke-linejoin:miter;stroke-opacity:1"
       d="m 46.638815,21.78406 0.326207,0 0,2.136498 1.174024,0 0,0.274531 -1.500231,0 0,-2.411029 z" />
    <path
       inkscape:connector-curvature="0"
       id="path5494"
       style="font-style:normal;font-weight:normal;font-size:3.30729151px;line-height:125%;font-family:sans-serif;text-align:center;letter-spacing:0px;word-spacing:0px;text-anchor:middle;fill:#000000;fill-opacity:1;stroke:none;stroke-width:1px;stroke-linecap:butt;stroke-linejoin:miter;stroke-opacity:1"
       d="m 43.399348,34.454475 0,1.874886 0.394033,0 q 0.499001,0 0.72993,-0.226085 0.232544,-0.226084 0.232544,-0.713781 0,-0.484466 -0.232544,-0.708936 -0.230929,-0.226084 -0.72993,-0.226084 l -0.394033,0 z m -0.326207,-0.268071 0.670179,0 q 0.700861,0 1.028684,0.292294 0.327822,0.29068 0.327822,0.910797 0,0.623347 -0.329437,0.915642 -0.329438,0.292295 -1.027069,0.292295 l -0.670179,0 0,-2.411028 z" />
    <path
       inkscape:connector-curvature="0"
       id="path5496"
       style="font-style:normal;font-weight:normal;font-size:3.30729151px;line-height:125%;font-family:sans-serif;text-align:center;letter-spacing:0px;word-spacing:0px;text-anchor:middle;fill:#000000;fill-opacity:1;stroke:none;stroke-width:1px;stroke-linecap:butt;stroke-linejoin:miter;stroke-opacity:1"
       d="m 45.703794,36.322901 0.532913,0 0,-1.839358 -0.579744,0.116272 0,-0.297139 0.576515,-0.116272 0.326207,0 0,2.136497 0.532913,0 0,0.274531 -1.388804,0 0,-0.274531 z" />
    <path
       inkscape:connector-curvature="0"
       id="path5498"
       style="font-style:normal;font-weight:normal;font-size:3.30729151px;line-height:125%;font-family:sans-serif;text-align:center;letter-spacing:0px;word-spacing:0px;text-anchor:middle;fill:#000000;fill-opacity:1;stroke:none;stroke-width:1px;stroke-linecap:butt;stroke-linejoin:miter;stroke-opacity:1"
       d="m 48.867361,35.46701 q 0.104968,0.03553 0.203476,0.1518 0.100123,0.116272 0.200246,0.319748 l 0.331052,0.658874 -0.350431,0 -0.308443,-0.618502 q -0.119502,-0.242234 -0.232544,-0.321363 -0.111428,-0.07913 -0.305214,-0.07913 l -0.355276,0 0,1.018995 -0.326207,0 0,-2.411028 0.736389,0 q 0.413411,0 0.616887,0.172793 0.203476,0.172793 0.203476,0.521609 0,0.227699 -0.106582,0.377883 -0.104968,0.150185 -0.306829,0.208321 z m -0.817134,-1.012535 0,0.855891 0.410182,0 q 0.235774,0 0.355275,-0.108198 0.121117,-0.109812 0.121117,-0.321362 0,-0.211551 -0.121117,-0.318133 -0.119501,-0.108198 -0.355275,-0.108198 l -0.410182,0 z" />
    <path
       inkscape:connector-curvature="0"
       id="path5500"
       style="font-style:normal;font-weight:normal;font-size:3.30729151px;line-height:125%;font-family:sans-serif;text-align:center;letter-spacing:0px;word-spacing:0px;text-anchor:middle;fill:#000000;fill-opacity:1;stroke:none;stroke-width:1px;stroke-linecap:butt;stroke-linejoin:miter;stroke-opacity:1"
       d="m 43.229785,46.588747 2.039604,0 0,0.274531 -0.855891,0 0,2.136497 -0.327822,0 0,-2.136497 -0.855891,0 0,-0.274531 z" />
    <path
       inkscape:connector-curvature="0"
       id="path5502"
       style="font-style:normal;font-weight:normal;font-size:3.30729151px;line-height:125%;font-family:sans-serif;text-align:center;letter-spacing:0px;word-spacing:0px;text-anchor:middle;fill:#000000;fill-opacity:1;stroke:none;stroke-width:1px;stroke-linecap:butt;stroke-linejoin:miter;stroke-opacity:1"
       d="m 45.671496,48.725244 0.532914,0 0,-1.839358 -0.579745,0.116272 0,-0.297139 0.576515,-0.116272 0.326207,0 0,2.136497 0.532914,0 0,0.274531 -1.388805,0 0,-0.274531 z" />
    <path
       inkscape:connector-curvature="0"
       id="path5504"
       style="font-style:normal;font-weight:normal;font-size:3.30729151px;line-height:125%;font-family:sans-serif;text-align:center;letter-spacing:0px;word-spacing:0px;text-anchor:middle;fill:#000000;fill-opacity:1;stroke:none;stroke-width:1px;stroke-linecap:butt;stroke-linejoin:miter;stroke-opacity:1"
       d="m 47.691722,46.588747 0.326208,0 0,2.136497 1.174023,0 0,0.274531 -1.500231,0 0,-2.411028 z" />
    <path
       inkscape:connector-curvature="0"
       id="path5506"
       style="font-style:normal;font-weight:normal;font-size:3.30729151px;line-height:125%;font-family:sans-serif;text-align:center;letter-spacing:0px;word-spacing:0px;text-anchor:middle;fill:#000000;fill-opacity:1;stroke:none;stroke-width:1px;stroke-linecap:butt;stroke-linejoin:miter;stroke-opacity:1"
       d="m 43.399348,59.259161 0,1.874886 0.394033,0 q 0.499001,0 0.72993,-0.226085 0.232544,-0.226084 0.232544,-0.71378 0,-0.484467 -0.232544,-0.708936 -0.230929,-0.226085 -0.72993,-0.226085 l -0.394033,0 z m -0.326207,-0.268071 0.670179,0 q 0.700861,0 1.028684,0.292295 0.327822,0.29068 0.327822,0.910797 0,0.623347 -0.329437,0.915641 -0.329438,0.292295 -1.027069,0.292295 l -0.670179,0 0,-2.411028 z" />
    <path
       inkscape:connector-curvature="0"
       id="path5508"
       style="font-style:normal;font-weight:normal;font-size:3.30729151px;line-height:125%;font-family:sans-serif;text-align:center;letter-spacing:0px;word-spacing:0px;text-anchor:middle;fill:#000000;fill-opacity:1;stroke:none;stroke-width:1px;stroke-linecap:butt;stroke-linejoin:miter;stroke-opacity:1"
       d="m 45.928264,61.127587 1.138496,0 0,0.274531 -1.530914,0 0,-0.274531 q 0.185712,-0.192171 0.50546,-0.515149 0.321363,-0.324593 0.403722,-0.418256 0.156644,-0.176023 0.21801,-0.29714 0.06298,-0.122731 0.06298,-0.240618 0,-0.192172 -0.135651,-0.313288 -0.134036,-0.121117 -0.350431,-0.121117 -0.153414,0 -0.324592,0.05329 -0.169564,0.05329 -0.36335,0.161489 l 0,-0.329437 q 0.197016,-0.07913 0.368194,-0.119502 0.171178,-0.04037 0.313289,-0.04037 0.374654,0 0.597508,0.187327 0.222855,0.187327 0.222855,0.500615 0,0.14857 -0.05652,0.282606 -0.05491,0.132421 -0.201861,0.313288 -0.04037,0.04683 -0.256767,0.271301 -0.216395,0.222855 -0.610428,0.624962 z" />
    <path
       inkscape:connector-curvature="0"
       id="path5510"
       style="font-style:normal;font-weight:normal;font-size:3.30729151px;line-height:125%;font-family:sans-serif;text-align:center;letter-spacing:0px;word-spacing:0px;text-anchor:middle;fill:#000000;fill-opacity:1;stroke:none;stroke-width:1px;stroke-linecap:butt;stroke-linejoin:miter;stroke-opacity:1"
       d="m 48.867361,60.271696 q 0.104968,0.03553 0.203476,0.1518 0.100123,0.116272 0.200246,0.319748 l 0.331052,0.658874 -0.350431,0 -0.308443,-0.618502 q -0.119502,-0.242233 -0.232544,-0.321363 -0.111428,-0.07913 -0.305214,-0.07913 l -0.355276,0 0,1.018994 -0.326207,0 0,-2.411028 0.736389,0 q 0.413411,0 0.616887,0.172793 0.203476,0.172793 0.203476,0.521609 0,0.227699 -0.106582,0.377884 -0.104968,0.150184 -0.306829,0.20832 z m -0.817134,-1.012535 0,0.855891 0.410182,0 q 0.235774,0 0.355275,-0.108197 0.121117,-0.109813 0.121117,-0.321363 0,-0.21155 -0.121117,-0.318133 -0.119501,-0.108198 -0.355275,-0.108198 l -0.410182,0 z" />
    <path
       inkscape:connector-curvature="0"
       id="path5512"
       style="font-style:normal;font-weight:normal;font-size:3.30729151px;line-height:125%;font-family:sans-serif;text-align:center;letter-spacing:0px;word-spacing:0px;text-anchor:middle;fill:#000000;fill-opacity:1;stroke:none;stroke-width:1px;stroke-linecap:butt;stroke-linejoin:miter;stroke-opacity:1"
       d="m 45.392121,72.67404 q 0.104968,0.03553 0.203476,0.151799 0.100123,0.116272 0.200246,0.319748 l 0.331052,0.658874 -0.350431,0 -0.308443,-0.618502 q -0.119502,-0.242233 -0.232544,-0.321363 -0.111428,-0.07913 -0.305214,-0.07913 l -0.355276,0 0,1.018994 -0.326207,0 0,-2.411028 0.736389,0 q 0.413411,0 0.616887,0.172793 0.203476,0.172793 0.203476,0.521609 0,0.227699 -0.106582,0.377884 -0.104968,0.150185 -0.306829,0.208321 z m -0.817134,-1.012535 0,0.85589 0.410182,0 q 0.235774,0 0.355275,-0.108197 0.121117,-0.109813 0.121117,-0.321363 0,-0.21155 -0.121117,-0.318133 -0.119501,-0.108197 -0.355275,-0.108197 l -0.410182,0 z" />
    <path
       inkscape:connector-curvature="0"
       id="path5514"
       style="font-style:normal;font-weight:normal;font-size:3.30729151px;line-height:125%;font-family:sans-serif;text-align:center;letter-spacing:0px;word-spacing:0px;text-anchor:middle;fill:#000000;fill-opacity:1;stroke:none;stroke-width:1px;stroke-linecap:butt;stroke-linejoin:miter;stroke-opacity:1"
       d="m 47.691722,72.67404 q 0.104968,0.03553 0.203476,0.151799 0.100123,0.116272 0.200246,0.319748 l 0.331052,0.658874 -0.350431,0 -0.308443,-0.618502 q -0.119502,-0.242233 -0.232544,-0.321363 -0.111428,-0.07913 -0.305214,-0.07913 l -0.355276,0 0,1.018994 -0.326207,0 0,-2.411028 0.736389,0 q 0.413411,0 0.616887,0.172793 0.203476,0.172793 0.203476,0.521609 0,0.227699 -0.106582,0.377884 -0.104968,0.150185 -0.306829,0.208321 z m -0.817134,-1.012535 0,0.85589 0.410182,0 q 0.235774,0 0.355275,-0.108197 0.121117,-0.109813 0.121117,-0.321363 0,-0.21155 -0.121117,-0.318133 -0.119501,-0.108197 -0.355275,-0.108197 l -0.410182,0 z" />
    <path
       inkscape:connector-curvature="0"
       id="path5517"
       style="font-style:normal;font-weight:normal;font-size:3.30729151px;line-height:125%;font-family:sans-serif;text-align:center;letter-spacing:0px;word-spacing:0px;text-anchor:middle;fill:#000000;fill-opacity:1;stroke:none;stroke-width:1px;stroke-linecap:butt;stroke-linejoin:miter;stroke-opacity:1"
       d="m 66.240658,9.7030798 -0.44248,1.1998622 0.886574,0 -0.444094,-1.1998622 z m -0.184098,-0.321363 0.36981,0 0.918871,2.4110292 -0.339126,0 -0.219625,-0.618503 -1.08682,0 -0.219625,0.618503 -0.343971,0 0.920486,-2.4110292 z" />
    <path
       inkscape:connector-curvature="0"
       id="path5519"
       style="font-style:normal;font-weight:normal;font-size:3.30729151px;line-height:125%;font-family:sans-serif;text-align:center;letter-spacing:0px;word-spacing:0px;text-anchor:middle;fill:#000000;fill-opacity:1;stroke:none;stroke-width:1px;stroke-linecap:butt;stroke-linejoin:miter;stroke-opacity:1"
       d="m 68.839013,10.662324 q 0.104968,0.03553 0.203476,0.151799 0.100123,0.116272 0.200246,0.319748 l 0.331052,0.658875 -0.350431,0 -0.308443,-0.618503 q -0.119502,-0.242233 -0.232544,-0.321362 -0.111427,-0.07913 -0.305214,-0.07913 l -0.355276,0 0,1.018995 -0.326207,0 0,-2.4110292 0.736389,0 q 0.413412,0 0.616888,0.172793 0.203475,0.172793 0.203475,0.5216092 0,0.2277 -0.106582,0.377884 -0.104968,0.150185 -0.306829,0.208321 z m -0.817134,-1.0125352 0,0.8558912 0.410182,0 q 0.235774,0 0.355276,-0.108198 0.121116,-0.109812 0.121116,-0.321363 0,-0.2115502 -0.121116,-0.3181332 -0.119502,-0.108197 -0.355276,-0.108197 l -0.410182,0 z" />
    <path
       inkscape:connector-curvature="0"
       id="path5521"
       style="font-style:normal;font-weight:normal;font-size:3.30729151px;line-height:125%;font-family:sans-serif;text-align:center;letter-spacing:0px;word-spacing:0px;text-anchor:middle;fill:#000000;fill-opacity:1;stroke:none;stroke-width:1px;stroke-linecap:butt;stroke-linejoin:miter;stroke-opacity:1"
       d="m 65.449362,21.78406 2.039604,0 0,0.274531 -0.855891,0 0,2.136498 -0.327822,0 0,-2.136498 -0.855891,0 0,-0.274531 z" />
    <path
       inkscape:connector-curvature="0"
       id="path5523"
       style="font-style:normal;font-weight:normal;font-size:3.30729151px;line-height:125%;font-family:sans-serif;text-align:center;letter-spacing:0px;word-spacing:0px;text-anchor:middle;fill:#000000;fill-opacity:1;stroke:none;stroke-width:1px;stroke-linecap:butt;stroke-linejoin:miter;stroke-opacity:1"
       d="m 67.805484,21.78406 0.326208,0 0,2.136498 1.174024,0 0,0.274531 -1.500232,0 0,-2.411029 z" />
    <path
       inkscape:connector-curvature="0"
       id="path5525"
       style="font-style:normal;font-weight:normal;font-size:3.30729151px;line-height:125%;font-family:sans-serif;text-align:center;letter-spacing:0px;word-spacing:0px;text-anchor:middle;fill:#000000;fill-opacity:1;stroke:none;stroke-width:1px;stroke-linecap:butt;stroke-linejoin:miter;stroke-opacity:1"
       d="m 64.566018,34.454475 0,1.874886 0.394033,0 q 0.499001,0 0.72993,-0.226085 0.232544,-0.226084 0.232544,-0.713781 0,-0.484466 -0.232544,-0.708936 -0.230929,-0.226084 -0.72993,-0.226084 l -0.394033,0 z m -0.326207,-0.268071 0.670179,0 q 0.700861,0 1.028683,0.292294 0.327823,0.29068 0.327823,0.910797 0,0.623347 -0.329437,0.915642 -0.329438,0.292295 -1.027069,0.292295 l -0.670179,0 0,-2.411028 z" />
    <path
       inkscape:connector-curvature="0"
       id="path5527"
       style="font-style:normal;font-weight:normal;font-size:3.30729151px;line-height:125%;font-family:sans-serif;text-align:center;letter-spacing:0px;word-spacing:0px;text-anchor:middle;fill:#000000;fill-opacity:1;stroke:none;stroke-width:1px;stroke-linecap:butt;stroke-linejoin:miter;stroke-opacity:1"
       d="m 66.870464,36.322901 0.532913,0 0,-1.839358 -0.579745,0.116272 0,-0.297139 0.576516,-0.116272 0.326207,0 0,2.136497 0.532913,0 0,0.274531 -1.388804,0 0,-0.274531 z" />
    <path
       inkscape:connector-curvature="0"
       id="path5529"
       style="font-style:normal;font-weight:normal;font-size:3.30729151px;line-height:125%;font-family:sans-serif;text-align:center;letter-spacing:0px;word-spacing:0px;text-anchor:middle;fill:#000000;fill-opacity:1;stroke:none;stroke-width:1px;stroke-linecap:butt;stroke-linejoin:miter;stroke-opacity:1"
       d="m 70.034031,35.46701 q 0.104967,0.03553 0.203476,0.1518 0.100123,0.116272 0.200246,0.319748 l 0.331052,0.658874 -0.350431,0 -0.308444,-0.618502 q -0.119501,-0.242234 -0.232543,-0.321363 -0.111428,-0.07913 -0.305214,-0.07913 l -0.355276,0 0,1.018995 -0.326207,0 0,-2.411028 0.736389,0 q 0.413411,0 0.616887,0.172793 0.203476,0.172793 0.203476,0.521609 0,0.227699 -0.106582,0.377883 -0.104968,0.150185 -0.306829,0.208321 z m -0.817134,-1.012535 0,0.855891 0.410182,0 q 0.235774,0 0.355275,-0.108198 0.121117,-0.109812 0.121117,-0.321362 0,-0.211551 -0.121117,-0.318133 -0.119501,-0.108198 -0.355275,-0.108198 l -0.410182,0 z" />
    <path
       inkscape:connector-curvature="0"
       id="path5531"
       style="font-style:normal;font-weight:normal;font-size:3.30729151px;line-height:125%;font-family:sans-serif;text-align:center;letter-spacing:0px;word-spacing:0px;text-anchor:middle;fill:#000000;fill-opacity:1;stroke:none;stroke-width:1px;stroke-linecap:butt;stroke-linejoin:miter;stroke-opacity:1"
       d="m 64.396455,46.588747 2.039604,0 0,0.274531 -0.855891,0 0,2.136497 -0.327822,0 0,-2.136497 -0.855891,0 0,-0.274531 z" />
    <path
       inkscape:connector-curvature="0"
       id="path5533"
       style="font-style:normal;font-weight:normal;font-size:3.30729151px;line-height:125%;font-family:sans-serif;text-align:center;letter-spacing:0px;word-spacing:0px;text-anchor:middle;fill:#000000;fill-opacity:1;stroke:none;stroke-width:1px;stroke-linecap:butt;stroke-linejoin:miter;stroke-opacity:1"
       d="m 66.838166,48.725244 0.532914,0 0,-1.839358 -0.579745,0.116272 0,-0.297139 0.576515,-0.116272 0.326207,0 0,2.136497 0.532913,0 0,0.274531 -1.388804,0 0,-0.274531 z" />
    <path
       inkscape:connector-curvature="0"
       id="path5535"
       style="font-style:normal;font-weight:normal;font-size:3.30729151px;line-height:125%;font-family:sans-serif;text-align:center;letter-spacing:0px;word-spacing:0px;text-anchor:middle;fill:#000000;fill-opacity:1;stroke:none;stroke-width:1px;stroke-linecap:butt;stroke-linejoin:miter;stroke-opacity:1"
       d="m 68.858392,46.588747 0.326207,0 0,2.136497 1.174024,0 0,0.274531 -1.500231,0 0,-2.411028 z" />
    <path
       inkscape:connector-curvature="0"
       id="path5537"
       style="font-style:normal;font-weight:normal;font-size:3.30729151px;line-height:125%;font-family:sans-serif;text-align:center;letter-spacing:0px;word-spacing:0px;text-anchor:middle;fill:#000000;fill-opacity:1;stroke:none;stroke-width:1px;stroke-linecap:butt;stroke-linejoin:miter;stroke-opacity:1"
       d="m 64.566018,59.259161 0,1.874886 0.394033,0 q 0.499001,0 0.72993,-0.226085 0.232544,-0.226084 0.232544,-0.71378 0,-0.484467 -0.232544,-0.708936 -0.230929,-0.226085 -0.72993,-0.226085 l -0.394033,0 z m -0.326207,-0.268071 0.670179,0 q 0.700861,0 1.028683,0.292295 0.327823,0.29068 0.327823,0.910797 0,0.623347 -0.329437,0.915641 -0.329438,0.292295 -1.027069,0.292295 l -0.670179,0 0,-2.411028 z" />
    <path
       inkscape:connector-curvature="0"
       id="path5539"
       style="font-style:normal;font-weight:normal;font-size:3.30729151px;line-height:125%;font-family:sans-serif;text-align:center;letter-spacing:0px;word-spacing:0px;text-anchor:middle;fill:#000000;fill-opacity:1;stroke:none;stroke-width:1px;stroke-linecap:butt;stroke-linejoin:miter;stroke-opacity:1"
       d="m 67.094934,61.127587 1.138496,0 0,0.274531 -1.530914,0 0,-0.274531 q 0.185712,-0.192171 0.50546,-0.515149 0.321363,-0.324593 0.403722,-0.418256 0.156644,-0.176023 0.21801,-0.29714 0.06298,-0.122731 0.06298,-0.240618 0,-0.192172 -0.13565,-0.313288 -0.134036,-0.121117 -0.350431,-0.121117 -0.153414,0 -0.324592,0.05329 -0.169564,0.05329 -0.36335,0.161489 l 0,-0.329437 q 0.197016,-0.07913 0.368194,-0.119502 0.171178,-0.04037 0.313289,-0.04037 0.374654,0 0.597508,0.187327 0.222855,0.187327 0.222855,0.500615 0,0.14857 -0.05652,0.282606 -0.05491,0.132421 -0.201861,0.313288 -0.04037,0.04683 -0.256768,0.271301 -0.216395,0.222855 -0.610427,0.624962 z" />
    <path
       inkscape:connector-curvature="0"
       id="path5541"
       style="font-style:normal;font-weight:normal;font-size:3.30729151px;line-height:125%;font-family:sans-serif;text-align:center;letter-spacing:0px;word-spacing:0px;text-anchor:middle;fill:#000000;fill-opacity:1;stroke:none;stroke-width:1px;stroke-linecap:butt;stroke-linejoin:miter;stroke-opacity:1"
       d="m 70.034031,60.271696 q 0.104967,0.03553 0.203476,0.1518 0.100123,0.116272 0.200246,0.319748 l 0.331052,0.658874 -0.350431,0 -0.308444,-0.618502 q -0.119501,-0.242233 -0.232543,-0.321363 -0.111428,-0.07913 -0.305214,-0.07913 l -0.355276,0 0,1.018994 -0.326207,0 0,-2.411028 0.736389,0 q 0.413411,0 0.616887,0.172793 0.203476,0.172793 0.203476,0.521609 0,0.227699 -0.106582,0.377884 -0.104968,0.150184 -0.306829,0.20832 z m -0.817134,-1.012535 0,0.855891 0.410182,0 q 0.235774,0 0.355275,-0.108197 0.121117,-0.109813 0.121117,-0.321363 0,-0.21155 -0.121117,-0.318133 -0.119501,-0.108198 -0.355275,-0.108198 l -0.410182,0 z" />
    <path
       inkscape:connector-curvature="0"
       id="path5543"
       style="font-style:normal;font-weight:normal;font-size:3.30729151px;line-height:125%;font-family:sans-serif;text-align:center;letter-spacing:0px;word-spacing:0px;text-anchor:middle;fill:#000000;fill-opacity:1;stroke:none;stroke-width:1px;stroke-linecap:butt;stroke-linejoin:miter;stroke-opacity:1"
       d="m 66.558791,72.67404 q 0.104967,0.03553 0.203476,0.151799 0.100123,0.116272 0.200246,0.319748 l 0.331052,0.658874 -0.350431,0 -0.308444,-0.618502 q -0.119501,-0.242233 -0.232544,-0.321363 -0.111427,-0.07913 -0.305213,-0.07913 l -0.355276,0 0,1.018994 -0.326207,0 0,-2.411028 0.736389,0 q 0.413411,0 0.616887,0.172793 0.203476,0.172793 0.203476,0.521609 0,0.227699 -0.106583,0.377884 -0.104967,0.150185 -0.306828,0.208321 z m -0.817134,-1.012535 0,0.85589 0.410182,0 q 0.235773,0 0.355275,-0.108197 0.121117,-0.109813 0.121117,-0.321363 0,-0.21155 -0.121117,-0.318133 -0.119502,-0.108197 -0.355275,-0.108197 l -0.410182,0 z" />
    <path
       inkscape:connector-curvature="0"
       id="path5545"
       style="font-style:normal;font-weight:normal;font-size:3.30729151px;line-height:125%;font-family:sans-serif;text-align:center;letter-spacing:0px;word-spacing:0px;text-anchor:middle;fill:#000000;fill-opacity:1;stroke:none;stroke-width:1px;stroke-linecap:butt;stroke-linejoin:miter;stroke-opacity:1"
       d="m 68.858392,72.67404 q 0.104967,0.03553 0.203476,0.151799 0.100123,0.116272 0.200246,0.319748 l 0.331052,0.658874 -0.350431,0 -0.308444,-0.618502 q -0.119501,-0.242233 -0.232543,-0.321363 -0.111428,-0.07913 -0.305214,-0.07913 l -0.355276,0 0,1.018994 -0.326207,0 0,-2.411028 0.736389,0 q 0.413411,0 0.616887,0.172793 0.203476,0.172793 0.203476,0.521609 0,0.227699 -0.106583,0.377884 -0.104967,0.150185 -0.306828,0.208321 z m -0.817134,-1.012535 0,0.85589 0.410182,0 q 0.235774,0 0.355275,-0.108197 0.121117,-0.109813 0.121117,-0.321363 0,-0.21155 -0.121117,-0.318133 -0.119501,-0.108197 -0.355275,-0.108197 l -0.410182,0 z" />
    <path
       inkscape:connector-curvature="0"
       id="path5548"
       style="font-style:normal;font-weight:normal;font-size:3.30729151px;line-height:125%;font-family:sans-serif;text-align:center;letter-spacing:0px;word-spacing:0px;text-anchor:middle;fill:#000000;fill-opacity:1;stroke:none;stroke-width:1px;stroke-linecap:butt;stroke-linejoin:miter;stroke-opacity:1"
       d="m 87.407322,9.7030798 -0.44248,1.1998622 0.886574,0 -0.444094,-1.1998622 z m -0.184098,-0.321363 0.36981,0 0.918871,2.4110292 -0.339126,0 -0.219625,-0.618503 -1.08682,0 -0.219625,0.618503 -0.343971,0 0.920486,-2.4110292 z" />
    <path
       inkscape:connector-curvature="0"
       id="path5550"
       style="font-style:normal;font-weight:normal;font-size:3.30729151px;line-height:125%;font-family:sans-serif;text-align:center;letter-spacing:0px;word-spacing:0px;text-anchor:middle;fill:#000000;fill-opacity:1;stroke:none;stroke-width:1px;stroke-linecap:butt;stroke-linejoin:miter;stroke-opacity:1"
       d="m 90.005677,10.662324 q 0.104968,0.03553 0.203476,0.151799 0.100123,0.116272 0.200246,0.319748 l 0.331052,0.658875 -0.35043,0 -0.308444,-0.618503 q -0.119502,-0.242233 -0.232544,-0.321362 -0.111427,-0.07913 -0.305214,-0.07913 l -0.355275,0 0,1.018995 -0.326208,0 0,-2.4110292 0.736389,0 q 0.413412,0 0.616888,0.172793 0.203476,0.172793 0.203476,0.5216092 0,0.2277 -0.106583,0.377884 -0.104968,0.150185 -0.306829,0.208321 z m -0.817133,-1.0125352 0,0.8558912 0.410181,0 q 0.235774,0 0.355276,-0.108198 0.121116,-0.109812 0.121116,-0.321363 0,-0.2115502 -0.121116,-0.3181332 -0.119502,-0.108197 -0.355276,-0.108197 l -0.410181,0 z" />
    <path
       inkscape:connector-curvature="0"
       id="path5552"
       style="font-style:normal;font-weight:normal;font-size:3.30729151px;line-height:125%;font-family:sans-serif;text-align:center;letter-spacing:0px;word-spacing:0px;text-anchor:middle;fill:#000000;fill-opacity:1;stroke:none;stroke-width:1px;stroke-linecap:butt;stroke-linejoin:miter;stroke-opacity:1"
       d="m 86.616026,21.78406 2.039604,0 0,0.274531 -0.85589,0 0,2.136498 -0.327823,0 0,-2.136498 -0.855891,0 0,-0.274531 z" />
    <path
       inkscape:connector-curvature="0"
       id="path5554"
       style="font-style:normal;font-weight:normal;font-size:3.30729151px;line-height:125%;font-family:sans-serif;text-align:center;letter-spacing:0px;word-spacing:0px;text-anchor:middle;fill:#000000;fill-opacity:1;stroke:none;stroke-width:1px;stroke-linecap:butt;stroke-linejoin:miter;stroke-opacity:1"
       d="m 88.972149,21.78406 0.326207,0 0,2.136498 1.174024,0 0,0.274531 -1.500231,0 0,-2.411029 z" />
    <path
       inkscape:connector-curvature="0"
       id="path5556"
       style="font-style:normal;font-weight:normal;font-size:3.30729151px;line-height:125%;font-family:sans-serif;text-align:center;letter-spacing:0px;word-spacing:0px;text-anchor:middle;fill:#000000;fill-opacity:1;stroke:none;stroke-width:1px;stroke-linecap:butt;stroke-linejoin:miter;stroke-opacity:1"
       d="m 85.732682,34.454475 0,1.874886 0.394033,0 q 0.499001,0 0.72993,-0.226085 0.232544,-0.226084 0.232544,-0.713781 0,-0.484466 -0.232544,-0.708936 -0.230929,-0.226084 -0.72993,-0.226084 l -0.394033,0 z m -0.326207,-0.268071 0.670179,0 q 0.700861,0 1.028684,0.292294 0.327822,0.29068 0.327822,0.910797 0,0.623347 -0.329437,0.915642 -0.329438,0.292295 -1.027069,0.292295 l -0.670179,0 0,-2.411028 z" />
    <path
       inkscape:connector-curvature="0"
       id="path5558"
       style="font-style:normal;font-weight:normal;font-size:3.30729151px;line-height:125%;font-family:sans-serif;text-align:center;letter-spacing:0px;word-spacing:0px;text-anchor:middle;fill:#000000;fill-opacity:1;stroke:none;stroke-width:1px;stroke-linecap:butt;stroke-linejoin:miter;stroke-opacity:1"
       d="m 88.037128,36.322901 0.532913,0 0,-1.839358 -0.579745,0.116272 0,-0.297139 0.576516,-0.116272 0.326207,0 0,2.136497 0.532913,0 0,0.274531 -1.388804,0 0,-0.274531 z" />
    <path
       inkscape:connector-curvature="0"
       id="path5560"
       style="font-style:normal;font-weight:normal;font-size:3.30729151px;line-height:125%;font-family:sans-serif;text-align:center;letter-spacing:0px;word-spacing:0px;text-anchor:middle;fill:#000000;fill-opacity:1;stroke:none;stroke-width:1px;stroke-linecap:butt;stroke-linejoin:miter;stroke-opacity:1"
       d="m 91.200695,35.46701 q 0.104968,0.03553 0.203476,0.1518 0.100123,0.116272 0.200246,0.319748 l 0.331052,0.658874 -0.350431,0 -0.308443,-0.618502 q -0.119502,-0.242234 -0.232544,-0.321363 -0.111428,-0.07913 -0.305214,-0.07913 l -0.355276,0 0,1.018995 -0.326207,0 0,-2.411028 0.736389,0 q 0.413411,0 0.616887,0.172793 0.203476,0.172793 0.203476,0.521609 0,0.227699 -0.106582,0.377883 -0.104968,0.150185 -0.306829,0.208321 z m -0.817134,-1.012535 0,0.855891 0.410182,0 q 0.235774,0 0.355275,-0.108198 0.121117,-0.109812 0.121117,-0.321362 0,-0.211551 -0.121117,-0.318133 -0.119501,-0.108198 -0.355275,-0.108198 l -0.410182,0 z" />
    <path
       inkscape:connector-curvature="0"
       id="path5562"
       style="font-style:normal;font-weight:normal;font-size:3.30729151px;line-height:125%;font-family:sans-serif;text-align:center;letter-spacing:0px;word-spacing:0px;text-anchor:middle;fill:#000000;fill-opacity:1;stroke:none;stroke-width:1px;stroke-linecap:butt;stroke-linejoin:miter;stroke-opacity:1"
       d="m 85.563119,46.588747 2.039604,0 0,0.274531 -0.855891,0 0,2.136497 -0.327822,0 0,-2.136497 -0.855891,0 0,-0.274531 z" />
    <path
       inkscape:connector-curvature="0"
       id="path5564"
       style="font-style:normal;font-weight:normal;font-size:3.30729151px;line-height:125%;font-family:sans-serif;text-align:center;letter-spacing:0px;word-spacing:0px;text-anchor:middle;fill:#000000;fill-opacity:1;stroke:none;stroke-width:1px;stroke-linecap:butt;stroke-linejoin:miter;stroke-opacity:1"
       d="m 88.00483,48.725244 0.532914,0 0,-1.839358 -0.579745,0.116272 0,-0.297139 0.576515,-0.116272 0.326207,0 0,2.136497 0.532914,0 0,0.274531 -1.388805,0 0,-0.274531 z" />
    <path
       inkscape:connector-curvature="0"
       id="path5566"
       style="font-style:normal;font-weight:normal;font-size:3.30729151px;line-height:125%;font-family:sans-serif;text-align:center;letter-spacing:0px;word-spacing:0px;text-anchor:middle;fill:#000000;fill-opacity:1;stroke:none;stroke-width:1px;stroke-linecap:butt;stroke-linejoin:miter;stroke-opacity:1"
       d="m 90.025056,46.588747 0.326208,0 0,2.136497 1.174023,0 0,0.274531 -1.500231,0 0,-2.411028 z" />
    <path
       inkscape:connector-curvature="0"
       id="path5568"
       style="font-style:normal;font-weight:normal;font-size:3.30729151px;line-height:125%;font-family:sans-serif;text-align:center;letter-spacing:0px;word-spacing:0px;text-anchor:middle;fill:#000000;fill-opacity:1;stroke:none;stroke-width:1px;stroke-linecap:butt;stroke-linejoin:miter;stroke-opacity:1"
       d="m 85.732682,59.259161 0,1.874886 0.394033,0 q 0.499001,0 0.72993,-0.226085 0.232544,-0.226084 0.232544,-0.71378 0,-0.484467 -0.232544,-0.708936 -0.230929,-0.226085 -0.72993,-0.226085 l -0.394033,0 z m -0.326207,-0.268071 0.670179,0 q 0.700861,0 1.028684,0.292295 0.327822,0.29068 0.327822,0.910797 0,0.623347 -0.329437,0.915641 -0.329438,0.292295 -1.027069,0.292295 l -0.670179,0 0,-2.411028 z" />
    <path
       inkscape:connector-curvature="0"
       id="path5570"
       style="font-style:normal;font-weight:normal;font-size:3.30729151px;line-height:125%;font-family:sans-serif;text-align:center;letter-spacing:0px;word-spacing:0px;text-anchor:middle;fill:#000000;fill-opacity:1;stroke:none;stroke-width:1px;stroke-linecap:butt;stroke-linejoin:miter;stroke-opacity:1"
       d="m 88.261598,61.127587 1.138496,0 0,0.274531 -1.530914,0 0,-0.274531 q 0.185712,-0.192171 0.50546,-0.515149 0.321363,-0.324593 0.403722,-0.418256 0.156644,-0.176023 0.21801,-0.29714 0.06298,-0.122731 0.06298,-0.240618 0,-0.192172 -0.135651,-0.313288 -0.134036,-0.121117 -0.350431,-0.121117 -0.153414,0 -0.324592,0.05329 -0.169564,0.05329 -0.36335,0.161489 l 0,-0.329437 q 0.197016,-0.07913 0.368194,-0.119502 0.171178,-0.04037 0.313289,-0.04037 0.374654,0 0.597508,0.187327 0.222855,0.187327 0.222855,0.500615 0,0.14857 -0.05652,0.282606 -0.05491,0.132421 -0.201861,0.313288 -0.04037,0.04683 -0.256767,0.271301 -0.216395,0.222855 -0.610428,0.624962 z" />
    <path
       inkscape:connector-curvature="0"
       id="path5572"
       style="font-style:normal;font-weight:normal;font-size:3.30729151px;line-height:125%;font-family:sans-serif;text-align:center;letter-spacing:0px;word-spacing:0px;text-anchor:middle;fill:#000000;fill-opacity:1;stroke:none;stroke-width:1px;stroke-linecap:butt;stroke-linejoin:miter;stroke-opacity:1"
       d="m 91.200695,60.271696 q 0.104968,0.03553 0.203476,0.1518 0.100123,0.116272 0.200246,0.319748 l 0.331052,0.658874 -0.350431,0 -0.308443,-0.618502 q -0.119502,-0.242233 -0.232544,-0.321363 -0.111428,-0.07913 -0.305214,-0.07913 l -0.355276,0 0,1.018994 -0.326207,0 0,-2.411028 0.736389,0 q 0.413411,0 0.616887,0.172793 0.203476,0.172793 0.203476,0.521609 0,0.227699 -0.106582,0.377884 -0.104968,0.150184 -0.306829,0.20832 z m -0.817134,-1.012535 0,0.855891 0.410182,0 q 0.235774,0 0.355275,-0.108197 0.121117,-0.109813 0.121117,-0.321363 0,-0.21155 -0.121117,-0.318133 -0.119501,-0.108198 -0.355275,-0.108198 l -0.410182,0 z" />
    <path
       inkscape:connector-curvature="0"
       id="path5574"
       style="font-style:normal;font-weight:normal;font-size:3.30729151px;line-height:125%;font-family:sans-serif;text-align:center;letter-spacing:0px;word-spacing:0px;text-anchor:middle;fill:#000000;fill-opacity:1;stroke:none;stroke-width:1px;stroke-linecap:butt;stroke-linejoin:miter;stroke-opacity:1"
       d="m 87.725455,72.67404 q 0.104967,0.03553 0.203476,0.151799 0.100123,0.116272 0.200246,0.319748 l 0.331052,0.658874 -0.350431,0 -0.308444,-0.618502 q -0.119501,-0.242233 -0.232543,-0.321363 -0.111428,-0.07913 -0.305214,-0.07913 l -0.355276,0 0,1.018994 -0.326207,0 0,-2.411028 0.736389,0 q 0.413411,0 0.616887,0.172793 0.203476,0.172793 0.203476,0.521609 0,0.227699 -0.106582,0.377884 -0.104968,0.150185 -0.306829,0.208321 z m -0.817134,-1.012535 0,0.85589 0.410182,0 q 0.235774,0 0.355275,-0.108197 0.121117,-0.109813 0.121117,-0.321363 0,-0.21155 -0.121117,-0.318133 -0.119501,-0.108197 -0.355275,-0.108197 l -0.410182,0 z" />
    <path
       inkscape:connector-curvature="0"
       id="path5576"
       style="font-style:normal;font-weight:normal;font-size:3.30729151px;line-height:125%;font-family:sans-serif;text-align:center;letter-spacing:0px;word-spacing:0px;text-anchor:middle;fill:#000000;fill-opacity:1;stroke:none;stroke-width:1px;stroke-linecap:butt;stroke-linejoin:miter;stroke-opacity:1"
       d="m 90.025056,72.67404 q 0.104968,0.03553 0.203476,0.151799 0.100123,0.116272 0.200246,0.319748 l 0.331052,0.658874 -0.350431,0 -0.308443,-0.618502 q -0.119502,-0.242233 -0.232544,-0.321363 -0.111428,-0.07913 -0.305214,-0.07913 l -0.355276,0 0,1.018994 -0.326207,0 0,-2.411028 0.736389,0 q 0.413411,0 0.616887,0.172793 0.203476,0.172793 0.203476,0.521609 0,0.227699 -0.106582,0.377884 -0.104968,0.150185 -0.306829,0.208321 z m -0.817134,-1.012535 0,0.85589 0.410182,0 q 0.235774,0 0.355275,-0.108197 0.121117,-0.109813 0.121117,-0.321363 0,-0.21155 -0.121117,-0.318133 -0.119501,-0.108197 -0.355275,-0.108197 l -0.410182,0 z" />
    <g
       style="font-style:normal;font-weight:normal;font-size:10.58333302px;line-height:125%;font-family:sans-serif;letter-spacing:0px;word-spacing:0px;fill:#000000;fill-opacity:1;stroke:none;stroke-width:1px;stroke-linecap:butt;stroke-linejoin:miter;stroke-opacity:1"
       id="text4717"
       transform="translate(-1.9476312e-8,5.2916662)">
      <path
         d="m 90.048973,81.635717 0.326208,0 0,2.136497 1.174023,0 0,0.274531 -1.500231,0 0,-2.411028 z"
         style="font-size:3.30729151px;fill:#ffffff;fill-opacity:1"
         id="path5713"
         inkscape:connector-curvature="0" />
    </g>
    <g
       style="font-style:normal;font-weight:normal;font-size:10.58333302px;line-height:125%;font-family:sans-serif;letter-spacing:0px;word-spacing:0px;fill:#000000;fill-opacity:1;stroke:none;stroke-width:1px;stroke-linecap:butt;stroke-linejoin:miter;stroke-opacity:1"
       id="text4721"
       transform="translate(-1.9476312e-8,5.2916662)">
      <path
         d="m 100.18816,82.916323 q 0.10496,0.03553 0.20347,0.1518 0.10013,0.116272 0.20025,0.319748 l 0.33105,0.658874 -0.35043,0 -0.30844,-0.618502 q -0.11951,-0.242233 -0.23255,-0.321363 -0.111425,-0.07913 -0.305212,-0.07913 l -0.355275,0 0,1.018994 -0.326208,0 0,-2.411028 0.736389,0 q 0.413416,0 0.616886,0.172793 0.20348,0.172793 0.20348,0.521609 0,0.227699 -0.10659,0.377884 -0.10496,0.150184 -0.30682,0.20832 z m -0.817137,-1.012535 0,0.855891 0.410181,0 q 0.235776,0 0.355276,-0.108197 0.12112,-0.109813 0.12112,-0.321363 0,-0.21155 -0.12112,-0.318133 -0.1195,-0.108198 -0.355276,-0.108198 l -0.410181,0 z"
         style="font-size:3.30729151px;fill:#ffffff;fill-opacity:1"
         id="path5710"
         inkscape:connector-curvature="0" />
    </g>
  </g>
  <g
     inkscape:groupmode="layer"
     id="layer3"
     inkscape:label="widgets">
    <rect
       y="14.144217"
       x="21.712624"
       height="5.3453898"
       width="5.3453903"
       id="OP1_AR"
       style="opacity:0.98999999;fill:#00ff00;fill-opacity:1"
       inkscape:label="#rect5802" />
    <rect
       style="opacity:0.98999999;fill:#00ff00;fill-opacity:1"
       id="OP1_TL"
       width="5.3453903"
       height="5.3453898"
       x="21.979895"
       y="25.685383"
       inkscape:label="#rect5810" />
    <rect
       y="37.578876"
       x="21.712626"
       height="5.3453898"
       width="5.3453903"
       id="OP1_D1R"
       style="opacity:0.98999999;fill:#00ff00;fill-opacity:1"
       inkscape:label="#rect5818" />
    <rect
       style="opacity:0.98999999;fill:#00ff00;fill-opacity:1"
       id="OP1_T1L"
       width="5.3453903"
       height="5.3453898"
       x="21.979895"
       y="50.274178"
       inkscape:label="#rect5826" />
    <rect
       y="62.167667"
       x="21.979895"
       height="5.3453898"
       width="5.3453903"
       id="OP1_D2R"
       style="opacity:0.98999999;fill:#00ff00;fill-opacity:1"
       inkscape:label="#rect5834" />
    <rect
       style="opacity:0.98999999;fill:#00ff00;fill-opacity:1"
       id="OP1_RR"
       width="5.3453903"
       height="5.3453898"
       x="21.95303"
       y="74.862976"
       inkscape:label="#rect5842" />
    <rect
       y="90.857758"
       x="88.372101"
       height="5.3453898"
       width="5.3453903"
       id="LEFT"
       style="opacity:0.98999999;fill:#0000ff;fill-opacity:1"
       inkscape:label="#rect5892" />
    <rect
       style="opacity:0.98999999;fill:#0000ff;fill-opacity:1"
       id="RIGHT"
       width="5.3453903"
       height="5.3453898"
       x="96.725273"
       y="90.857758"
       inkscape:label="#rect5894" />
    <rect
       style="opacity:0.98999999;fill:#00ff00;fill-opacity:1"
       id="GATE"
       width="5.3453903"
       height="5.3453898"
       x="5.8221049"
       y="9.3661022"
       inkscape:label="#rect5924" />
    <rect
       inkscape:label="#rect5802"
       style="opacity:0.98999999;fill:#ff0000;fill-opacity:1"
       id="OP1_AR_OFFSET"
       width="5.3453903"
       height="5.3453898"
       x="30.468723"
       y="11.042854" />
    <rect
       inkscape:label="#rect5810"
       y="22.584021"
       x="30.735994"
       height="5.3453898"
       width="5.3453903"
       id="OP1_TL_OFFSET"
       style="opacity:0.98999999;fill:#ff0000;fill-opacity:1" />
    <rect
       inkscape:label="#rect5818"
       style="opacity:0.98999999;fill:#ff0000;fill-opacity:1"
       id="OP1_D1R_OFFSET"
       width="5.3453903"
       height="5.3453898"
       x="30.468725"
       y="34.477512" />
    <rect
       inkscape:label="#rect5826"
       y="47.172813"
       x="30.735994"
       height="5.3453898"
       width="5.3453903"
       id="OP1_T1L_OFFSET"
       style="opacity:0.98999999;fill:#ff0000;fill-opacity:1" />
    <rect
       inkscape:label="#rect5834"
       style="opacity:0.98999999;fill:#ff0000;fill-opacity:1"
       id="OP1_D2R_OFFSET"
       width="5.3453903"
       height="5.3453898"
       x="30.735994"
       y="59.066303" />
    <rect
       inkscape:label="#rect5842"
       y="71.761612"
       x="30.709129"
       height="5.3453898"
       width="5.3453903"
       id="OP1_RR_OFFSET"
       style="opacity:0.98999999;fill:#ff0000;fill-opacity:1" />
    <rect
       inkscape:label="#rect5802"
       style="opacity:0.98999999;fill:#00ff00;fill-opacity:1"
       id="OP2_AR"
       width="5.3453903"
       height="5.3453898"
       x="42.879292"
       y="14.144217" />
    <rect
       inkscape:label="#rect5810"
       y="25.685383"
       x="43.146564"
       height="5.3453898"
       width="5.3453903"
       id="OP2_TL"
       style="opacity:0.98999999;fill:#00ff00;fill-opacity:1" />
    <rect
       inkscape:label="#rect5818"
       style="opacity:0.98999999;fill:#00ff00;fill-opacity:1"
       id="OP2_D1R"
       width="5.3453903"
       height="5.3453898"
       x="42.879295"
       y="37.578876" />
    <rect
       inkscape:label="#rect5826"
       y="50.274178"
       x="43.146564"
       height="5.3453898"
       width="5.3453903"
       id="OP2_T1L"
       style="opacity:0.98999999;fill:#00ff00;fill-opacity:1" />
    <rect
       inkscape:label="#rect5834"
       style="opacity:0.98999999;fill:#00ff00;fill-opacity:1"
       id="OP2_D2R"
       width="5.3453903"
       height="5.3453898"
       x="43.146564"
       y="62.167667" />
    <rect
       inkscape:label="#rect5842"
       y="74.862976"
       x="43.119698"
       height="5.3453898"
       width="5.3453903"
       id="OP2_RR"
       style="opacity:0.98999999;fill:#00ff00;fill-opacity:1" />
    <rect
       y="11.042854"
       x="51.635395"
       height="5.3453898"
       width="5.3453903"
       id="OP2_AR_OFFSET"
       style="opacity:0.98999999;fill:#ff0000;fill-opacity:1"
       inkscape:label="#rect5802" />
    <rect
       style="opacity:0.98999999;fill:#ff0000;fill-opacity:1"
       id="OP2_TL_OFFSET"
       width="5.3453903"
       height="5.3453898"
       x="51.902664"
       y="22.584021"
       inkscape:label="#rect5810" />
    <rect
       y="34.477512"
       x="51.635395"
       height="5.3453898"
       width="5.3453903"
       id="OP2_D1R_OFFSET"
       style="opacity:0.98999999;fill:#ff0000;fill-opacity:1"
       inkscape:label="#rect5818" />
    <rect
       style="opacity:0.98999999;fill:#ff0000;fill-opacity:1"
       id="OP2_T1L_OFFSET"
       width="5.3453903"
       height="5.3453898"
       x="51.902664"
       y="47.172813"
       inkscape:label="#rect5826" />
    <rect
       y="59.066303"
       x="51.902664"
       height="5.3453898"
       width="5.3453903"
       id="OP2_D2R_OFFSET"
       style="opacity:0.98999999;fill:#ff0000;fill-opacity:1"
       inkscape:label="#rect5834" />
    <rect
       style="opacity:0.98999999;fill:#ff0000;fill-opacity:1"
       id="OP2_RR_OFFSET"
       width="5.3453903"
       height="5.3453898"
       x="51.875801"
       y="71.761612"
       inkscape:label="#rect5842" />
    <rect
       y="14.144217"
       x="64.045959"
       height="5.3453898"
       width="5.3453903"
       id="OP3_AR"
       style="opacity:0.98999999;fill:#00ff00;fill-opacity:1"
       inkscape:label="#rect5802" />
    <rect
       style="opacity:0.98999999;fill:#00ff00;fill-opacity:1"
       id="OP3_TL"
       width="5.3453903"
       height="5.3453898"
       x="64.313232"
       y="25.685383"
       inkscape:label="#rect5810" />
    <rect
       y="37.578876"
       x="64.045967"
       height="5.3453898"
       width="5.3453903"
       id="OP3_D1R"
       style="opacity:0.98999999;fill:#00ff00;fill-opacity:1"
       inkscape:label="#rect5818" />
    <rect
       style="opacity:0.98999999;fill:#00ff00;fill-opacity:1"
       id="OP3_T1L"
       width="5.3453903"
       height="5.3453898"
       x="64.313232"
       y="50.274178"
       inkscape:label="#rect5826" />
    <rect
       y="62.167667"
       x="64.313232"
       height="5.3453898"
       width="5.3453903"
       id="OP3_D2R"
       style="opacity:0.98999999;fill:#00ff00;fill-opacity:1"
       inkscape:label="#rect5834" />
    <rect
       style="opacity:0.98999999;fill:#00ff00;fill-opacity:1"
       id="OP3_RR"
       width="5.3453903"
       height="5.3453898"
       x="64.286369"
       y="74.862976"
       inkscape:label="#rect5842" />
    <rect
       inkscape:label="#rect5802"
       style="opacity:0.98999999;fill:#ff0000;fill-opacity:1"
       id="OP3_AR_OFFSET"
       width="5.3453903"
       height="5.3453898"
       x="72.802063"
       y="11.042854" />
    <rect
       inkscape:label="#rect5810"
       y="22.584021"
       x="73.069328"
       height="5.3453898"
       width="5.3453903"
       id="OP3_TL_OFFSET"
       style="opacity:0.98999999;fill:#ff0000;fill-opacity:1" />
    <rect
       inkscape:label="#rect5818"
       style="opacity:0.98999999;fill:#ff0000;fill-opacity:1"
       id="OP3_D1R_OFFSET"
       width="5.3453903"
       height="5.3453898"
       x="72.802063"
       y="34.477512" />
    <rect
       inkscape:label="#rect5826"
       y="47.172813"
       x="73.069328"
       height="5.3453898"
       width="5.3453903"
       id="OP3_T1L_OFFSET"
       style="opacity:0.98999999;fill:#ff0000;fill-opacity:1" />
    <rect
       inkscape:label="#rect5834"
       style="opacity:0.98999999;fill:#ff0000;fill-opacity:1"
       id="OP3_D2R_OFFSET"
       width="5.3453903"
       height="5.3453898"
       x="73.069328"
       y="59.066303" />
    <rect
       inkscape:label="#rect5842"
       y="71.761612"
       x="73.042465"
       height="5.3453898"
       width="5.3453903"
       id="OP3_RR_OFFSET"
       style="opacity:0.98999999;fill:#ff0000;fill-opacity:1" />
    <rect
       inkscape:label="#rect5802"
       style="opacity:0.98999999;fill:#00ff00;fill-opacity:1"
       id="OP4_AR"
       width="5.3453903"
       height="5.3453898"
       x="85.212616"
       y="14.144217" />
    <rect
       inkscape:label="#rect5810"
       y="25.685383"
       x="85.479889"
       height="5.3453898"
       width="5.3453903"
       id="OP4_TL"
       style="opacity:0.98999999;fill:#00ff00;fill-opacity:1" />
    <rect
       inkscape:label="#rect5818"
       style="opacity:0.98999999;fill:#00ff00;fill-opacity:1"
       id="OP4_D1R"
       width="5.3453903"
       height="5.3453898"
       x="85.212624"
       y="37.578876" />
    <rect
       inkscape:label="#rect5826"
       y="50.274178"
       x="85.479889"
       height="5.3453898"
       width="5.3453903"
       id="OP4_T1L"
       style="opacity:0.98999999;fill:#00ff00;fill-opacity:1" />
    <rect
       inkscape:label="#rect5834"
       style="opacity:0.98999999;fill:#00ff00;fill-opacity:1"
       id="OP4_D2R"
       width="5.3453903"
       height="5.3453898"
       x="85.479889"
       y="62.167667" />
    <rect
       inkscape:label="#rect5842"
       y="74.862976"
       x="85.453026"
       height="5.3453898"
       width="5.3453903"
       id="OP4_RR"
       style="opacity:0.98999999;fill:#00ff00;fill-opacity:1" />
    <rect
       y="11.042854"
       x="93.968719"
       height="5.3453898"
       width="5.3453903"
       id="OP4_AR_OFFSET"
       style="opacity:0.98999999;fill:#ff0000;fill-opacity:1"
       inkscape:label="#rect5802" />
    <rect
       style="opacity:0.98999999;fill:#ff0000;fill-opacity:1"
       id="OP4_TL_OFFSET"
       width="5.3453903"
       height="5.3453898"
       x="94.235985"
       y="22.584021"
       inkscape:label="#rect5810" />
    <rect
       y="34.477512"
       x="93.968719"
       height="5.3453898"
       width="5.3453903"
       id="OP4_D1R_OFFSET"
       style="opacity:0.98999999;fill:#ff0000;fill-opacity:1"
       inkscape:label="#rect5818" />
    <rect
       style="opacity:0.98999999;fill:#ff0000;fill-opacity:1"
       id="OP4_T1L_OFFSET"
       width="5.3453903"
       height="5.3453898"
       x="94.235985"
       y="47.172813"
       inkscape:label="#rect5826" />
    <rect
       y="59.066303"
       x="94.235985"
       height="5.3453898"
       width="5.3453903"
       id="OP4_D2R_OFFSET"
       style="opacity:0.98999999;fill:#ff0000;fill-opacity:1"
       inkscape:label="#rect5834" />
    <rect
       style="opacity:0.98999999;fill:#ff0000;fill-opacity:1"
       id="OP4_RR_OFFSET"
       width="5.3453903"
       height="5.3453898"
       x="94.209122"
       y="71.761612"
       inkscape:label="#rect5842" />
    <rect
       inkscape:label="#rect5924"
       y="19.949434"
       x="5.8221049"
       height="5.3453898"
       width="5.3453903"
       id="CV"
       style="opacity:0.98999999;fill:#00ff00;fill-opacity:1" />
  </g>
</svg>
