<?xml version="1.0" encoding="UTF-8" standalone="no"?>
<!-- Created with Inkscape (http://www.inkscape.org/) -->

<svg
   xmlns:dc="http://purl.org/dc/elements/1.1/"
   xmlns:cc="http://creativecommons.org/ns#"
   xmlns:rdf="http://www.w3.org/1999/02/22-rdf-syntax-ns#"
   xmlns:svg="http://www.w3.org/2000/svg"
   xmlns="http://www.w3.org/2000/svg"
   xmlns:sodipodi="http://sodipodi.sourceforge.net/DTD/sodipodi-0.dtd"
   xmlns:inkscape="http://www.inkscape.org/namespaces/inkscape"
   width="400"
   height="380"
   viewBox="0 0 105.83333 100.54166"
   version="1.1"
   id="svg8"
   inkscape:version="0.91 r13725"
   sodipodi:docname="editableCV2612.svg">
  <defs
     id="defs2" />
  <sodipodi:namedview
     id="base"
     pagecolor="#ffffff"
     bordercolor="#666666"
     borderopacity="1.0"
     inkscape:pageopacity="0.0"
     inkscape:pageshadow="2"
     inkscape:zoom="1.979899"
     inkscape:cx="236.11124"
     inkscape:cy="207.42179"
     inkscape:document-units="px"
     inkscape:current-layer="layer1"
     showgrid="false"
     units="px"
     inkscape:snap-bbox="true"
     inkscape:snap-page="true"
     inkscape:bbox-nodes="true"
     inkscape:snap-bbox-edge-midpoints="true"
     inkscape:window-width="1920"
     inkscape:window-height="1046"
     inkscape:window-x="1920"
     inkscape:window-y="0"
     inkscape:window-maximized="1" />
  <metadata
     id="metadata5">
    <rdf:RDF>
      <cc:Work
         rdf:about="">
        <dc:format>image/svg+xml</dc:format>
        <dc:type
           rdf:resource="http://purl.org/dc/dcmitype/StillImage" />
        <dc:title></dc:title>
      </cc:Work>
    </rdf:RDF>
  </metadata>
  <g
     inkscape:label="Layer 1"
     inkscape:groupmode="layer"
     id="layer1"
     transform="translate(0,-196.45833)">
    <path
       style="opacity:1;fill:#ffa4ff;fill-opacity:1;fill-rule:evenodd;stroke:none;stroke-width:0.48607069;stroke-linecap:butt;stroke-linejoin:round;stroke-miterlimit:4;stroke-dasharray:none;stroke-dashoffset:0;stroke-opacity:1;paint-order:normal"
       d="m 0,196.45831 105.83333,0 0,100.54168 -105.83333,0 z"
       id="rect817"
       inkscape:connector-curvature="0" />
    <path
       inkscape:connector-curvature="0"
       id="path36497"
       d="m 103.24249,278.34767 c 0,-0.43022 -0.35259,-0.78279 -0.7828,-0.78279 l -6.009987,0 c -0.43129,0 -0.78278,0.35257 -0.78278,0.78279 l 0,9.52389 c 0,0.43021 0.35149,0.78279 0.78278,0.78279 l 6.009987,0 c 0.43021,0 0.7828,-0.35258 0.7828,-0.78279 z m 0,0"
       style="fill:#000000;fill-opacity:1;fill-rule:nonzero;stroke:none;stroke-width:0.27602378" />
    <text
       xml:space="preserve"
       style="font-style:normal;font-variant:normal;font-weight:normal;font-stretch:normal;font-size:5.95312595px;line-height:125%;font-family:Dyuthi;-inkscape-font-specification:'Dyuthi, Normal';text-align:start;letter-spacing:0px;word-spacing:0px;writing-mode:lr-tb;text-anchor:start;fill:#000000;fill-opacity:1;stroke:none;stroke-width:1px;stroke-linecap:butt;stroke-linejoin:miter;stroke-opacity:1"
       x="40.698593"
       y="295.40308"
       id="text4261"
       sodipodi:linespacing="125%"><tspan
         sodipodi:role="line"
         id="tspan4265"
         x="40.698593"
         y="295.40308">Tercer Brazo</tspan></text>
    <text
       sodipodi:linespacing="125%"
       id="text4267"
       y="201.40044"
       x="42.89085"
       style="font-style:normal;font-variant:normal;font-weight:normal;font-stretch:normal;font-size:5.95312452px;line-height:125%;font-family:Dyuthi;-inkscape-font-specification:'Dyuthi, Normal';text-align:start;letter-spacing:0px;word-spacing:0px;writing-mode:lr-tb;text-anchor:start;fill:#000000;fill-opacity:1;stroke:none;stroke-width:1px;stroke-linecap:butt;stroke-linejoin:miter;stroke-opacity:1"
       xml:space="preserve"><tspan
         sodipodi:role="line"
         id="tspan4271"
         x="42.89085"
         y="201.40044">CV2612</tspan></text>
    <path
       style="fill:#000000;fill-opacity:1;fill-rule:nonzero;stroke:none;stroke-width:0.27602378"
       d="m 94.775824,278.34767 c 0,-0.43022 -0.352586,-0.78279 -0.782796,-0.78279 l -6.009991,0 c -0.43129,0 -0.78278,0.35257 -0.78278,0.78279 l 0,9.52389 c 0,0.43021 0.35149,0.78279 0.78278,0.78279 l 6.009991,0 c 0.43021,0 0.782796,-0.35258 0.782796,-0.78279 z m 0,0"
       id="path4701"
       inkscape:connector-curvature="0" />
    <text
       xml:space="preserve"
       style="font-style:normal;font-weight:normal;font-size:10.58333302px;line-height:125%;font-family:sans-serif;letter-spacing:0px;word-spacing:0px;fill:#000000;fill-opacity:1;stroke:none;stroke-width:1px;stroke-linecap:butt;stroke-linejoin:miter;stroke-opacity:1"
       x="89.615868"
       y="280.81409"
       id="text4717"
       sodipodi:linespacing="125%"><tspan
         sodipodi:role="line"
         id="tspan4719"
         x="89.615868"
         y="280.81409"
         style="font-size:3.30729151px;fill:#ffffff;fill-opacity:1">L</tspan></text>
    <text
       sodipodi:linespacing="125%"
       id="text4721"
       y="280.81409"
       x="98.61171"
       style="font-style:normal;font-weight:normal;font-size:10.58333302px;line-height:125%;font-family:sans-serif;letter-spacing:0px;word-spacing:0px;fill:#000000;fill-opacity:1;stroke:none;stroke-width:1px;stroke-linecap:butt;stroke-linejoin:miter;stroke-opacity:1"
       xml:space="preserve"><tspan
         style="font-size:3.30729151px;fill:#ffffff;fill-opacity:1"
         y="280.81409"
         x="98.61171"
         id="tspan4723"
         sodipodi:role="line">R</tspan></text>
  </g>
  <g
     inkscape:groupmode="layer"
     id="layer2"
     inkscape:label="Layer 2">
    <path
       style="fill:#000000;fill-opacity:1;stroke:none;stroke-width:0.27602378"
       d="m 140.55394,68.107885 c 0.18545,0 0.3364,-0.0647 0.44422,-0.138009 0.0517,-0.0302 0.0776,-0.0776 0.0776,-0.13801 l 0,-0.336401 c 0,-0.0604 -0.0474,-0.112139 -0.11213,-0.112139 l -0.34934,0 c -0.0517,0 -0.0992,0.0431 -0.0992,0.0992 0,0.0518 0.0474,0.0949 0.0992,0.0949 l 0.25015,0 0,0.232902 c -0.0776,0.0604 -0.18546,0.0949 -0.30622,0.0949 -0.25446,0 -0.42697,-0.18977 -0.42697,-0.44854 0,-0.24152 0.17682,-0.444228 0.40972,-0.444228 0.1337,0 0.22427,0.0388 0.3019,0.0992 0.0216,0.01291 0.0431,0.0259 0.069,0.0259 0.0604,0 0.11214,-0.0517 0.11214,-0.112128 0,-0.0431 -0.0259,-0.0733 -0.0474,-0.0906 -0.11214,-0.0819 -0.24152,-0.12508 -0.42698,-0.12508 -0.37953,-5e-6 -0.64693,0.297585 -0.64693,0.646925 l 0,0.004 c 0,0.366599 0.25446,0.64693 0.65125,0.64693 z m 0,0"
       id="path9367"
       inkscape:connector-curvature="0" />
    <path
       style="fill:#000000;fill-opacity:1;stroke:none;stroke-width:0.27602378"
       d="m 141.31375,67.991447 c 0,0.0604 0.0474,0.1035 0.10351,0.1035 0.0474,0 0.0863,-0.0259 0.1035,-0.069 l 0.10351,-0.241519 0.61243,0 0.10351,0.232899 c 0.0172,0.0474 0.0517,0.0776 0.10782,0.0776 0.0561,0 0.10351,-0.0474 0.10351,-0.103511 0,-0.0173 -0.004,-0.0345 -0.0129,-0.0474 l -0.46579,-1.04371 c -0.0259,-0.0518 -0.069,-0.0863 -0.1337,-0.0863 l -0.009,0 c -0.0647,0 -0.10782,0.0345 -0.1337,0.0863 l -0.46579,1.043709 c -0.009,0.0173 -0.0172,0.0345 -0.0172,0.0474 z m 0.39678,-0.40541 0.21996,-0.504611 0.21995,0.504611 z m 0,0"
       id="path9363"
       inkscape:connector-curvature="0" />
    <path
       style="fill:#000000;fill-opacity:1;stroke:none;stroke-width:0.27602378"
       d="m 142.99336,67.987127 c 0,0.0604 0.0517,0.10782 0.11213,0.10782 0.0604,0 0.11214,-0.0474 0.11214,-0.10782 l 0,-0.953141 0.30621,0 c 0.0561,0 0.0992,-0.0474 0.0992,-0.0992 0,-0.0561 -0.0431,-0.10351 -0.0992,-0.10351 l -0.8367,0 c -0.0561,0 -0.0992,0.0474 -0.0992,0.10351 0,0.0517 0.0431,0.0992 0.0992,0.0992 l 0.30622,0 z m 0,0"
       id="path9359"
       inkscape:connector-curvature="0" />
    <path
       style="fill:#000000;fill-opacity:1;stroke:none;stroke-width:0.27602378"
       d="m 143.99991,68.086327 0.74181,0 c 0.0518,0 0.0992,-0.0431 0.0992,-0.0992 0,-0.0517 -0.0474,-0.0992 -0.0992,-0.0992 l -0.62968,0 0,-0.336409 0.53911,0 c 0.0517,0 0.0992,-0.0431 0.0992,-0.0949 0,-0.0561 -0.0474,-0.1035 -0.0992,-0.1035 l -0.53911,0 0,-0.323469 0.62106,0 c 0.0517,0 0.0949,-0.0431 0.0949,-0.0992 0,-0.0561 -0.0431,-0.0992 -0.0949,-0.0992 l -0.73319,0 c -0.0604,0 -0.11214,0.0474 -0.11214,0.11213 l 0,1.03078 c 0,0.0647 0.0517,0.11213 0.11214,0.11213 z m 0,0"
       id="path9355"
       inkscape:connector-curvature="0" />
    <path
       style="fill:#000000;fill-opacity:1;stroke:none;stroke-width:0.27602378"
       d="m 149.25356,67.987127 c 0,0.0604 0.0517,0.10782 0.11213,0.10782 0.0604,0 0.11214,-0.0474 0.11214,-0.10782 l 0,-0.340712 0.27602,0 0.30622,0.392472 c 0.0259,0.0345 0.0561,0.0561 0.10782,0.0561 0.0517,0 0.10351,-0.0388 0.10351,-0.103511 0,-0.0345 -0.0129,-0.0561 -0.0345,-0.0819 l -0.24152,-0.3019 c 0.1682,-0.0561 0.28465,-0.176832 0.28465,-0.375221 l 0,-0.004 c 0,-0.112138 -0.0345,-0.202707 -0.10351,-0.271708 -0.0776,-0.0776 -0.20271,-0.125082 -0.36228,-0.125082 l -0.44854,0 c -0.0604,0 -0.11214,0.0474 -0.11214,0.112141 z m 0.22427,-0.534792 0,-0.422669 0.31915,0 c 0.16389,0 0.25877,0.0733 0.25877,0.211341 0,0.129379 -0.0992,0.211328 -0.25877,0.211328 z m 0,0"
       id="path9335"
       inkscape:connector-curvature="0" />
    <path
       style="fill:#000000;fill-opacity:1;stroke:none;stroke-width:0.27602378"
       d="m 150.7262,68.086327 0.74182,0 c 0.0517,0 0.0992,-0.0431 0.0992,-0.0992 0,-0.0517 -0.0474,-0.0992 -0.0992,-0.0992 l -0.62969,0 0,-0.336409 0.53911,0 c 0.0517,0 0.0992,-0.0431 0.0992,-0.0949 0,-0.0561 -0.0474,-0.1035 -0.0992,-0.1035 l -0.53911,0 0,-0.323469 0.62106,0 c 0.0517,0 0.0949,-0.0431 0.0949,-0.0992 0,-0.0561 -0.0431,-0.0992 -0.0949,-0.0992 l -0.73319,0 c -0.0604,0 -0.11213,0.0474 -0.11213,0.11213 l 0,1.03078 c 0,0.0647 0.0517,0.11213 0.11213,0.11213 z m 0,0"
       id="path9331"
       inkscape:connector-curvature="0" />
    <path
       style="fill:#000000;fill-opacity:1;stroke:none;stroke-width:0.27602378"
       d="m 153.0909,67.987127 c 0,0.0604 0.0517,0.10782 0.11214,0.10782 0.0604,0 0.11213,-0.0474 0.11213,-0.10782 l 0,-0.340712 0.27602,0 0.30622,0.392472 c 0.0259,0.0345 0.0561,0.0561 0.10782,0.0561 0.0517,0 0.10351,-0.0388 0.10351,-0.103511 0,-0.0345 -0.0129,-0.0561 -0.0345,-0.0819 l -0.24152,-0.3019 c 0.1682,-0.0561 0.28465,-0.176832 0.28465,-0.375221 l 0,-0.004 c 0,-0.112138 -0.0345,-0.202707 -0.10351,-0.271708 -0.0776,-0.0776 -0.2027,-0.125082 -0.36228,-0.125082 l -0.44854,0 c -0.0604,0 -0.11213,0.0474 -0.11213,0.112141 z m 0.22427,-0.534792 0,-0.422669 0.31915,0 c 0.16389,0 0.25878,0.0733 0.25878,0.211341 0,0.129379 -0.0992,0.211328 -0.25878,0.211328 z m 0,0"
       id="path9323"
       inkscape:connector-curvature="0" />
    <path
       style="fill:#000000;fill-opacity:1;stroke:none;stroke-width:0.27602378"
       d="m 154.45842,67.987127 c 0,0.0604 0.0517,0.10782 0.11213,0.10782 0.0604,0 0.11214,-0.0474 0.11214,-0.10782 l 0,-1.056651 c 0,-0.0604 -0.0518,-0.10782 -0.11214,-0.10782 -0.0604,0 -0.11213,0.0474 -0.11213,0.10782 z m 0,0"
       id="path9319"
       inkscape:connector-curvature="0" />
    <path
       style="fill:#000000;fill-opacity:1;stroke:none;stroke-width:0.27602378"
       d="m 155.66109,68.107885 c 0.18545,0 0.3364,-0.0647 0.44422,-0.138009 0.0517,-0.0302 0.0776,-0.0776 0.0776,-0.13801 l 0,-0.336401 c 0,-0.0604 -0.0474,-0.112139 -0.11213,-0.112139 l -0.34934,0 c -0.0518,0 -0.0992,0.0431 -0.0992,0.0992 0,0.0518 0.0474,0.0949 0.0992,0.0949 l 0.25014,0 0,0.232902 c -0.0776,0.0604 -0.18545,0.0949 -0.30621,0.0949 -0.25446,0 -0.42698,-0.18977 -0.42698,-0.44854 0,-0.24152 0.17683,-0.444228 0.40973,-0.444228 0.1337,0 0.22427,0.0388 0.3019,0.0992 0.0216,0.01291 0.0431,0.0259 0.069,0.0259 0.0604,0 0.11213,-0.0517 0.11213,-0.112128 0,-0.0431 -0.0259,-0.0733 -0.0474,-0.0906 -0.11213,-0.0819 -0.24152,-0.12508 -0.42697,-0.12508 -0.37953,0 -0.64693,0.29759 -0.64693,0.64693 l 0,0.004 c 0,0.366598 0.25446,0.64693 0.65124,0.64693 z m 0,0"
       id="path9315"
       inkscape:connector-curvature="0" />
    <path
       inkscape:connector-curvature="0"
       id="path34093"
       d="m 142.85434,22.284715 15.01634,0"
       style="fill:none;stroke:#000000;stroke-width:0.18383189;stroke-linecap:round;stroke-linejoin:round;stroke-miterlimit:10;stroke-opacity:1" />
    <path
       inkscape:connector-curvature="0"
       id="path34095"
       d="m 142.85434,39.888787 15.01634,0"
       style="fill:none;stroke:#000000;stroke-width:0.18383189;stroke-linecap:round;stroke-linejoin:round;stroke-miterlimit:10;stroke-opacity:1" />
    <path
       inkscape:connector-curvature="0"
       id="path34097"
       d="m 142.85434,57.493935 15.01634,0"
       style="fill:none;stroke:#000000;stroke-width:0.18383189;stroke-linecap:round;stroke-linejoin:round;stroke-miterlimit:10;stroke-opacity:1" />
    <path
       inkscape:connector-curvature="0"
       id="path34099"
       d="m 142.85434,4.6795757 15.01634,0"
       style="fill:none;stroke:#000000;stroke-width:0.18383189;stroke-linecap:round;stroke-linejoin:round;stroke-miterlimit:10;stroke-opacity:1" />
    <path
       style="fill:#000000;fill-opacity:1;stroke:none;stroke-width:0.27602378"
       d="m 155.70971,-2.7764143 c 0,0.0733 0.0517,0.12938 0.12507,0.12938 0.0561,0 0.10351,-0.0345 0.12507,-0.0863 l 0.12939,-0.3019 0.75044,0 0.12507,0.29328 c 0.0259,0.0561 0.069,0.0949 0.1337,0.0949 0.0733,0 0.12939,-0.0604 0.12939,-0.1337 0,-0.0172 -0.004,-0.0345 -0.0173,-0.0561 l -0.57361,-1.28092 c -0.0302,-0.069 -0.082,-0.11214 -0.15958,-0.11214 l -0.0129,0 c -0.0776,0 -0.1337,0.0431 -0.16389,0.11214 l -0.57361,1.28092 c -0.0129,0.0216 -0.0172,0.0431 -0.0172,0.0604 z m 0.48304,-0.49598 0.27171,-0.62537 0.27171,0.62537 z m 0,0"
       id="path8947"
       inkscape:connector-curvature="0" />
    <path
       style="fill:#000000;fill-opacity:1;stroke:none;stroke-width:0.27602378"
       d="m 157.74953,-2.7850443 c 0,0.0776 0.0604,0.13801 0.13801,0.13801 0.0733,0 0.13801,-0.0604 0.13801,-0.13801 l 0,-1.16879 0.37522,0 c 0.069,0 0.12507,-0.0561 0.12507,-0.12507 0,-0.069 -0.0561,-0.12507 -0.12507,-0.12507 l -1.02646,0 c -0.069,0 -0.12508,0.0561 -0.12508,0.12507 0,0.069 0.0561,0.12507 0.12508,0.12507 l 0.37522,0 z m 0,0"
       id="path8943"
       inkscape:connector-curvature="0" />
    <path
       style="fill:#000000;fill-opacity:1;stroke:none;stroke-width:0.27602378"
       d="m 159.27185,-2.7850443 c 0,0.0776 0.0604,0.13801 0.13801,0.13801 0.0733,0 0.13802,-0.0604 0.13802,-0.13801 l 0,-1.16879 0.37522,0 c 0.069,0 0.12507,-0.0561 0.12507,-0.12507 0,-0.069 -0.0561,-0.12507 -0.12507,-0.12507 l -1.02647,0 c -0.069,0 -0.12507,0.0561 -0.12507,0.12507 0,0.069 0.0561,0.12507 0.12507,0.12507 l 0.37522,0 z m 0,0"
       id="path8939"
       inkscape:connector-curvature="0" />
    <path
       style="fill:#000000;fill-opacity:1;stroke:none;stroke-width:0.27602378"
       d="m 155.62111,14.984576 c 0,0.0776 0.0604,0.13801 0.13801,0.13801 l 0.43991,0 c 0.48304,0 0.81945,-0.3364 0.81945,-0.772 l 0,-0.004 c 0,-0.435599 -0.33641,-0.76769 -0.81945,-0.76769 l -0.43991,0 c -0.0776,0 -0.13801,0.0561 -0.13801,0.1337 z m 0.27171,-0.10782 0,-1.05234 0.30621,0 c 0.32347,0 0.5348,0.22427 0.5348,0.52617 l 0,0.004 c 0,0.301901 -0.21133,0.521861 -0.5348,0.521861 z m 0,0"
       id="path8935"
       inkscape:connector-curvature="0" />
    <path
       style="fill:#000000;fill-opacity:1;stroke:none;stroke-width:0.27602378"
       d="m 157.53383,15.122586 0.91002,0 c 0.0647,0 0.12076,-0.0517 0.12076,-0.12076 0,-0.069 -0.0561,-0.12076 -0.12076,-0.12076 l -0.77632,0 0,-0.41835 0.66418,0 c 0.069,0 0.12077,-0.0518 0.12077,-0.11644 0,-0.069 -0.0518,-0.12508 -0.12077,-0.12508 l -0.66418,0 0,-0.4011 0.76338,0 c 0.069,0 0.12076,-0.0517 0.12076,-0.12075 0,-0.069 -0.0517,-0.12077 -0.12076,-0.12077 l -0.89708,0 c -0.0776,0 -0.13801,0.0561 -0.13801,0.1337 l 0,1.2723 c 0,0.0776 0.0604,0.13801 0.13801,0.13801 z m 0,0"
       id="path8931"
       inkscape:connector-curvature="0" />
    <path
       style="fill:#000000;fill-opacity:1;stroke:none;stroke-width:0.27602378"
       d="m 159.60229,15.148466 c 0.25015,0 0.41835,-0.0776 0.56499,-0.20702 0.0216,-0.0216 0.0431,-0.0561 0.0431,-0.0992 0,-0.0647 -0.0604,-0.12507 -0.12939,-0.12507 -0.0345,0 -0.0604,0.0129 -0.0819,0.0302 -0.11213,0.0949 -0.22427,0.15095 -0.38384,0.15095 -0.29759,0 -0.51324,-0.24584 -0.51324,-0.54774 l 0,-0.004 c 0,-0.301899 0.21565,-0.54773 0.51324,-0.54773 0.14663,0 0.25877,0.0561 0.36659,0.142321 0.0173,0.0129 0.0431,0.0259 0.0819,0.0259 0.0733,0 0.1337,-0.0604 0.1337,-0.1337 0,-0.0474 -0.0216,-0.0863 -0.0517,-0.10782 -0.1337,-0.10351 -0.29327,-0.17683 -0.53048,-0.17683 -0.4701,0 -0.79788,0.36228 -0.79788,0.80219 l 0,0.004 c 0,0.44422 0.3364,0.79357 0.78494,0.79357 z m 0,0"
       id="path8927"
       inkscape:connector-curvature="0" />
    <path
       style="fill:#000000;fill-opacity:1;stroke:none;stroke-width:0.27602378"
       d="m 156.30805,32.747847 c 0.32346,0 0.55205,-0.172511 0.55205,-0.46147 l 0,-0.004 c 0,-0.254461 -0.1682,-0.370912 -0.49598,-0.452851 -0.29759,-0.069 -0.37091,-0.125071 -0.37091,-0.241519 l 0,-0.004 c 0,-0.103511 0.0949,-0.185449 0.25446,-0.185449 0.12076,0 0.23289,0.0431 0.35366,0.116448 0.0216,0.01291 0.0431,0.02159 0.0733,0.02159 0.069,0 0.12507,-0.0561 0.12507,-0.125071 0,-0.0517 -0.0259,-0.0906 -0.0604,-0.107818 -0.13801,-0.0949 -0.29328,-0.14664 -0.48735,-0.14664 -0.30622,0 -0.53049,0.185449 -0.53049,0.44854 l 0,0.004 c 0,0.284652 0.18546,0.383853 0.51755,0.461481 0.28465,0.069 0.34934,0.129382 0.34934,0.23721 l 0,0.004 c 0,0.116451 -0.10782,0.19408 -0.27602,0.19408 -0.16821,0 -0.30622,-0.0561 -0.43129,-0.159581 -0.0173,-0.01289 -0.0431,-0.02159 -0.082,-0.02159 -0.069,0 -0.12507,0.0561 -0.12507,0.125069 0,0.0431 0.0216,0.0819 0.0517,0.10351 0.17251,0.129389 0.37091,0.19408 0.58224,0.19408 z m 0,0"
       id="path8923"
       inkscape:connector-curvature="0" />
    <path
       style="fill:#000000;fill-opacity:1;stroke:none;stroke-width:0.27602378"
       d="m 157.86486,32.752165 c 0.40541,0 0.66418,-0.232899 0.66418,-0.69438 l 0,-0.754748 c 0,-0.0733 -0.0604,-0.133702 -0.13369,-0.133702 -0.0776,0 -0.13802,0.0604 -0.13802,0.133702 l 0,0.767689 c 0,0.284649 -0.14664,0.426979 -0.38816,0.426979 -0.24151,0 -0.39247,-0.15095 -0.39247,-0.43992 l 0,-0.754748 c 0,-0.0733 -0.0561,-0.133702 -0.1337,-0.133702 -0.0776,0 -0.13801,0.0604 -0.13801,0.133702 l 0,0.767689 c 0,0.44854 0.25877,0.681439 0.65987,0.681439 z m 0,0"
       id="path8919"
       inkscape:connector-curvature="0" />
    <path
       style="fill:#000000;fill-opacity:1;stroke:none;stroke-width:0.27602378"
       d="m 159.50087,32.747847 c 0.32347,0 0.55205,-0.172511 0.55205,-0.46147 l 0,-0.004 c 0,-0.254461 -0.1682,-0.370912 -0.49598,-0.452851 -0.29759,-0.069 -0.37091,-0.125071 -0.37091,-0.241519 l 0,-0.004 c 0,-0.103511 0.0949,-0.185449 0.25446,-0.185449 0.12076,0 0.2329,0.0431 0.35366,0.116448 0.0216,0.01291 0.0431,0.02159 0.0733,0.02159 0.069,0 0.12507,-0.0561 0.12507,-0.125071 0,-0.0517 -0.0259,-0.0906 -0.0604,-0.107818 -0.13801,-0.0949 -0.29327,-0.14664 -0.48735,-0.14664 -0.30622,0 -0.53049,0.185449 -0.53049,0.44854 l 0,0.004 c 0,0.284652 0.18546,0.383853 0.51755,0.461481 0.28465,0.069 0.34934,0.129382 0.34934,0.23721 l 0,0.004 c 0,0.116451 -0.10782,0.19408 -0.27602,0.19408 -0.1682,0 -0.30622,-0.0561 -0.43129,-0.159581 -0.0173,-0.01289 -0.0431,-0.02159 -0.082,-0.02159 -0.069,0 -0.12507,0.0561 -0.12507,0.125069 0,0.0431 0.0216,0.0819 0.0517,0.10351 0.17252,0.129389 0.37091,0.19408 0.58224,0.19408 z m 0,0"
       id="path8915"
       inkscape:connector-curvature="0" />
    <path
       style="fill:#000000;fill-opacity:1;stroke:none;stroke-width:0.27602378"
       d="m 155.79334,50.204916 c 0,0.0776 0.0604,0.13801 0.13801,0.13801 0.0733,0 0.1337,-0.0604 0.1337,-0.13801 l 0,-0.414041 0.34071,0 0.37522,0.478732 c 0.0345,0.0431 0.0733,0.0733 0.1337,0.0733 0.069,0 0.12939,-0.0517 0.12939,-0.129392 0,-0.0388 -0.0172,-0.069 -0.0431,-0.10351 l -0.29328,-0.370898 c 0.20702,-0.0647 0.34935,-0.215651 0.34935,-0.461481 l 0,-0.004 c 0,-0.1337 -0.0474,-0.25014 -0.12939,-0.336399 -0.0992,-0.0949 -0.25015,-0.150951 -0.44423,-0.150951 l -0.55204,0 c -0.0776,0 -0.13802,0.0561 -0.13802,0.1337 z m 0.27171,-0.65556 0,-0.517549 0.39678,0 c 0.19839,0 0.31915,0.0906 0.31915,0.254468 l 0,0.004 c 0,0.159571 -0.12507,0.258771 -0.31915,0.258771 z m 0,0"
       id="path8911"
       inkscape:connector-curvature="0" />
    <path
       style="fill:#000000;fill-opacity:1;stroke:none;stroke-width:0.27602378"
       d="m 157.58904,50.329985 0.91002,0 c 0.0647,0 0.12076,-0.0517 0.12076,-0.120759 0,-0.069 -0.0561,-0.120761 -0.12076,-0.120761 l -0.77632,0 0,-0.418348 0.66418,0 c 0.069,0 0.12076,-0.0518 0.12076,-0.116451 0,-0.069 -0.0517,-0.125069 -0.12076,-0.125069 l -0.66418,0 0,-0.4011 0.76338,0 c 0.069,0 0.12076,-0.0518 0.12076,-0.120761 0,-0.069 -0.0517,-0.120759 -0.12076,-0.120759 l -0.89708,0 c -0.0776,0 -0.13801,0.0561 -0.13801,0.133699 l 0,1.2723 c 0,0.0776 0.0604,0.138009 0.13801,0.138009 z m 0,0"
       id="path8907"
       inkscape:connector-curvature="0" />
    <path
       style="fill:#000000;fill-opacity:1;stroke:none;stroke-width:0.27602378"
       d="m 158.97689,50.191976 c 0,0.0776 0.0604,0.138009 0.13801,0.138009 l 0.83239,0 c 0.069,0 0.12507,-0.0561 0.12507,-0.125069 0,-0.069 -0.0561,-0.120761 -0.12507,-0.120761 l -0.69869,0 0,-1.177419 c 0,-0.0733 -0.0604,-0.1337 -0.1337,-0.1337 -0.0776,0 -0.13801,0.0604 -0.13801,0.1337 z m 0,0"
       id="path8903"
       inkscape:connector-curvature="0" />
    <g
       id="g4428"
       transform="matrix(0.71981915,0,0,0.71981915,41.872961,-75.699563)">
      <path
         inkscape:connector-curvature="0"
         id="path4361"
         d="m 27.970239,124.92112 59.153271,0.18899"
         style="fill:none;fill-rule:evenodd;stroke:#000000;stroke-width:0.26458332px;stroke-linecap:butt;stroke-linejoin:miter;stroke-opacity:1" />
      <path
         inkscape:connector-curvature="0"
         id="path4363"
         d="m 37.230655,124.73213 9.260417,-17.19791 8.504462,7.55952 17.386906,1.32292 11.717261,8.50446"
         style="fill:none;fill-rule:evenodd;stroke:#000000;stroke-width:0.26458332px;stroke-linecap:butt;stroke-linejoin:miter;stroke-opacity:1" />
      <path
         inkscape:connector-curvature="0"
         id="path4365"
         d="m 46.491072,107.53422 c 0.425222,0.14174 12.473212,0 12.473212,0"
         style="fill:none;fill-rule:evenodd;stroke:#000000;stroke-width:0.26458332px;stroke-linecap:butt;stroke-linejoin:miter;stroke-opacity:1" />
      <path
         inkscape:connector-curvature="0"
         id="path4367"
         d="m 54.995534,115.14099 13.890625,0"
         style="fill:none;fill-rule:evenodd;stroke:#000000;stroke-width:0.26458332px;stroke-linecap:butt;stroke-linejoin:miter;stroke-opacity:1" />
      <path
         inkscape:connector-curvature="0"
         id="path4369"
         d="m 72.476933,116.4639 10.914063,0"
         style="fill:none;fill-rule:evenodd;stroke:#000000;stroke-width:0.26458332px;stroke-linecap:butt;stroke-linejoin:miter;stroke-opacity:1" />
      <path
         inkscape:connector-curvature="0"
         id="path4371"
         d="m 33.97061,124.92112 0,-17.52864"
         style="fill:none;fill-rule:evenodd;stroke:#000000;stroke-width:0.26458332px;stroke-linecap:butt;stroke-linejoin:miter;stroke-opacity:1" />
      <path
         inkscape:connector-curvature="0"
         id="path4373"
         d="m 51.829985,115.47172 0,9.26041"
         style="fill:none;fill-rule:evenodd;stroke:#000000;stroke-width:0.26458332px;stroke-linecap:butt;stroke-linejoin:miter;stroke-opacity:1" />
      <path
         inkscape:connector-curvature="0"
         id="path4377"
         d="m 33.02567,108.43191 c 0.236235,-0.18899 0.803198,-0.99219 0.803198,-0.99219 l 0.897694,1.03944"
         style="fill:none;fill-rule:evenodd;stroke:#000000;stroke-width:0.26458332px;stroke-linecap:butt;stroke-linejoin:miter;stroke-opacity:1" />
      <path
         inkscape:connector-curvature="0"
         id="path4377-3"
         d="m 50.970799,116.67845 c 0.236235,-0.18899 0.803198,-0.99219 0.803198,-0.99219 l 0.897694,1.03944"
         style="fill:none;fill-rule:evenodd;stroke:#000000;stroke-width:0.26458332px;stroke-linecap:butt;stroke-linejoin:miter;stroke-opacity:1" />
      <path
         inkscape:connector-curvature="0"
         id="path4377-4"
         d="m 34.8376,123.70343 c -0.238381,0.19071 -0.810494,1.0012 -0.810494,1.0012 l -0.905849,-1.04888"
         style="fill:none;fill-rule:evenodd;stroke:#000000;stroke-width:0.26698691px;stroke-linecap:butt;stroke-linejoin:miter;stroke-opacity:1" />
      <path
         style="fill:none;fill-rule:evenodd;stroke:#000000;stroke-width:0.26698691px;stroke-linecap:butt;stroke-linejoin:miter;stroke-opacity:1"
         d="m 52.696975,124.04361 c -0.238381,0.19071 -0.810494,1.0012 -0.810494,1.0012 l -0.905849,-1.04888"
         id="path4400"
         inkscape:connector-curvature="0" />
      <text
         sodipodi:linespacing="125%"
         id="text4402"
         y="116.03869"
         x="29.245907"
         style="font-style:normal;font-weight:normal;font-size:2.64583325px;line-height:125%;font-family:sans-serif;letter-spacing:0px;word-spacing:0px;writing-mode:lr-tb;fill:#000000;fill-opacity:1;stroke:none;stroke-width:1px;stroke-linecap:butt;stroke-linejoin:miter;stroke-opacity:1"
         xml:space="preserve"><tspan
           y="116.03869"
           x="29.245907"
           id="tspan4404"
           sodipodi:role="line">TL</tspan></text>
      <text
         xml:space="preserve"
         style="font-style:normal;font-weight:normal;font-size:2.64583325px;line-height:125%;font-family:sans-serif;letter-spacing:0px;word-spacing:0px;writing-mode:lr-tb;fill:#000000;fill-opacity:1;stroke:none;stroke-width:1px;stroke-linecap:butt;stroke-linejoin:miter;stroke-opacity:1"
         x="46.708424"
         y="121.33036"
         id="text4406"
         sodipodi:linespacing="125%"><tspan
           sodipodi:role="line"
           id="tspan4408"
           x="46.708424"
           y="121.33036">T1L</tspan></text>
      <text
         sodipodi:linespacing="125%"
         id="text4412"
         y="110.21786"
         x="49.883427"
         style="font-style:normal;font-weight:normal;font-size:2.64583325px;line-height:125%;font-family:sans-serif;letter-spacing:0px;word-spacing:0px;writing-mode:lr-tb;fill:#000000;fill-opacity:1;stroke:none;stroke-width:1px;stroke-linecap:butt;stroke-linejoin:miter;stroke-opacity:1"
         xml:space="preserve"><tspan
           y="110.21786"
           x="49.883427"
           id="tspan4414"
           sodipodi:role="line">D1R</tspan></text>
      <text
         xml:space="preserve"
         style="font-style:normal;font-weight:normal;font-size:2.64583325px;line-height:125%;font-family:sans-serif;letter-spacing:0px;word-spacing:0px;writing-mode:lr-tb;fill:#000000;fill-opacity:1;stroke:none;stroke-width:1px;stroke-linecap:butt;stroke-linejoin:miter;stroke-opacity:1"
         x="61.525105"
         y="114.45119"
         id="text4416"
         sodipodi:linespacing="125%"><tspan
           sodipodi:role="line"
           id="tspan4418"
           x="61.525105"
           y="114.45119">D2R</tspan></text>
      <text
         sodipodi:linespacing="125%"
         id="text4420"
         y="119.21365"
         x="77.400116"
         style="font-style:normal;font-weight:normal;font-size:2.64583325px;line-height:125%;font-family:sans-serif;letter-spacing:0px;word-spacing:0px;writing-mode:lr-tb;fill:#000000;fill-opacity:1;stroke:none;stroke-width:1px;stroke-linecap:butt;stroke-linejoin:miter;stroke-opacity:1"
         xml:space="preserve"><tspan
           y="119.21365"
           x="77.400116"
           id="tspan4422"
           sodipodi:role="line">RR</tspan></text>
      <text
         xml:space="preserve"
         style="font-style:normal;font-weight:normal;font-size:2.64583325px;line-height:125%;font-family:sans-serif;letter-spacing:0px;word-spacing:0px;writing-mode:lr-tb;fill:#000000;fill-opacity:1;stroke:none;stroke-width:1px;stroke-linecap:butt;stroke-linejoin:miter;stroke-opacity:1"
         x="38.770939"
         y="123.97616"
         id="text4424"
         sodipodi:linespacing="125%"><tspan
           sodipodi:role="line"
           id="tspan4426"
           x="38.770939"
           y="123.97616">AR</tspan></text>
    </g>
    <text
       xml:space="preserve"
       style="font-style:normal;font-weight:normal;font-size:10.58333302px;line-height:125%;font-family:sans-serif;letter-spacing:0px;word-spacing:0px;fill:#000000;fill-opacity:1;stroke:none;stroke-width:1px;stroke-linecap:butt;stroke-linejoin:miter;stroke-opacity:1"
       x="9.1821213"
       y="27.667744"
       id="text4453"
       sodipodi:linespacing="125%"><tspan
         sodipodi:role="line"
         id="tspan4455"
         x="9.1821213"
         y="27.667744"
         style="font-size:3.30729151px;text-align:center;text-anchor:middle">AR</tspan><tspan
         sodipodi:role="line"
         x="9.1821213"
         y="31.801857"
         style="font-size:3.30729151px;text-align:center;text-anchor:middle"
         id="tspan4467" /><tspan
         sodipodi:role="line"
         x="9.1821213"
         y="35.935974"
         style="font-size:3.30729151px;text-align:center;text-anchor:middle"
         id="tspan4485" /><tspan
         sodipodi:role="line"
         x="9.1821213"
         y="40.070087"
         id="tspan4459"
         style="font-size:3.30729151px;text-align:center;text-anchor:middle">TL</tspan><tspan
         sodipodi:role="line"
         x="9.1821213"
         y="44.204201"
         style="font-size:3.30729151px;text-align:center;text-anchor:middle"
         id="tspan4469" /><tspan
         sodipodi:role="line"
         x="9.1821213"
         y="48.338314"
         style="font-size:3.30729151px;text-align:center;text-anchor:middle"
         id="tspan4483" /><tspan
         sodipodi:role="line"
         x="9.1821213"
         y="52.472431"
         id="tspan4457"
         style="font-size:3.30729151px;text-align:center;text-anchor:middle">D1R</tspan><tspan
         sodipodi:role="line"
         x="9.1821213"
         y="56.606544"
         style="font-size:3.30729151px;text-align:center;text-anchor:middle"
         id="tspan4471" /><tspan
         sodipodi:role="line"
         x="9.1821213"
         y="60.740658"
         style="font-size:3.30729151px;text-align:center;text-anchor:middle"
         id="tspan4481" /><tspan
         sodipodi:role="line"
         x="9.1821213"
         y="64.874771"
         id="tspan4461"
         style="font-size:3.30729151px;text-align:center;text-anchor:middle">T1L</tspan><tspan
         sodipodi:role="line"
         x="9.1821213"
         y="69.008888"
         style="font-size:3.30729151px;text-align:center;text-anchor:middle"
         id="tspan4473" /><tspan
         sodipodi:role="line"
         x="9.1821213"
         y="73.143005"
         style="font-size:3.30729151px;text-align:center;text-anchor:middle"
         id="tspan4479" /><tspan
         sodipodi:role="line"
         x="9.1821213"
         y="77.277115"
         id="tspan4463"
         style="font-size:3.30729151px;text-align:center;text-anchor:middle">D2R</tspan><tspan
         sodipodi:role="line"
         x="9.1821213"
         y="81.411232"
         style="font-size:3.30729151px;text-align:center;text-anchor:middle"
         id="tspan4475" /><tspan
         sodipodi:role="line"
         x="9.1821213"
         y="85.545341"
         style="font-size:3.30729151px;text-align:center;text-anchor:middle"
         id="tspan4477" /><tspan
         sodipodi:role="line"
         x="9.1821213"
         y="89.679459"
         id="tspan4465"
         style="font-size:3.30729151px;text-align:center;text-anchor:middle">RR</tspan></text>
    <text
       sodipodi:linespacing="125%"
       id="text4589"
       y="27.667744"
       x="30.348787"
       style="font-style:normal;font-weight:normal;font-size:10.58333302px;line-height:125%;font-family:sans-serif;letter-spacing:0px;word-spacing:0px;fill:#000000;fill-opacity:1;stroke:none;stroke-width:1px;stroke-linecap:butt;stroke-linejoin:miter;stroke-opacity:1"
       xml:space="preserve"><tspan
         style="font-size:3.30729151px;text-align:center;text-anchor:middle"
         y="27.667744"
         x="30.348787"
         id="tspan4591"
         sodipodi:role="line">AR</tspan><tspan
         id="tspan4593"
         style="font-size:3.30729151px;text-align:center;text-anchor:middle"
         y="31.801859"
         x="30.348787"
         sodipodi:role="line" /><tspan
         id="tspan4595"
         style="font-size:3.30729151px;text-align:center;text-anchor:middle"
         y="35.935974"
         x="30.348787"
         sodipodi:role="line" /><tspan
         style="font-size:3.30729151px;text-align:center;text-anchor:middle"
         id="tspan4597"
         y="40.070087"
         x="30.348787"
         sodipodi:role="line">TL</tspan><tspan
         id="tspan4599"
         style="font-size:3.30729151px;text-align:center;text-anchor:middle"
         y="44.204201"
         x="30.348787"
         sodipodi:role="line" /><tspan
         id="tspan4601"
         style="font-size:3.30729151px;text-align:center;text-anchor:middle"
         y="48.338314"
         x="30.348787"
         sodipodi:role="line" /><tspan
         style="font-size:3.30729151px;text-align:center;text-anchor:middle"
         id="tspan4603"
         y="52.472431"
         x="30.348787"
         sodipodi:role="line">D1R</tspan><tspan
         id="tspan4605"
         style="font-size:3.30729151px;text-align:center;text-anchor:middle"
         y="56.606544"
         x="30.348787"
         sodipodi:role="line" /><tspan
         id="tspan4607"
         style="font-size:3.30729151px;text-align:center;text-anchor:middle"
         y="60.740658"
         x="30.348787"
         sodipodi:role="line" /><tspan
         style="font-size:3.30729151px;text-align:center;text-anchor:middle"
         id="tspan4609"
         y="64.874771"
         x="30.348787"
         sodipodi:role="line">T1L</tspan><tspan
         id="tspan4611"
         style="font-size:3.30729151px;text-align:center;text-anchor:middle"
         y="69.008888"
         x="30.348787"
         sodipodi:role="line" /><tspan
         id="tspan4613"
         style="font-size:3.30729151px;text-align:center;text-anchor:middle"
         y="73.143005"
         x="30.348787"
         sodipodi:role="line" /><tspan
         style="font-size:3.30729151px;text-align:center;text-anchor:middle"
         id="tspan4615"
         y="77.277115"
         x="30.348787"
         sodipodi:role="line">D2R</tspan><tspan
         id="tspan4617"
         style="font-size:3.30729151px;text-align:center;text-anchor:middle"
         y="81.411232"
         x="30.348787"
         sodipodi:role="line" /><tspan
         id="tspan4619"
         style="font-size:3.30729151px;text-align:center;text-anchor:middle"
         y="85.545341"
         x="30.348787"
         sodipodi:role="line" /><tspan
         style="font-size:3.30729151px;text-align:center;text-anchor:middle"
         id="tspan4621"
         y="89.679459"
         x="30.348787"
         sodipodi:role="line">RR</tspan></text>
    <text
       xml:space="preserve"
       style="font-style:normal;font-weight:normal;font-size:10.58333302px;line-height:125%;font-family:sans-serif;letter-spacing:0px;word-spacing:0px;fill:#000000;fill-opacity:1;stroke:none;stroke-width:1px;stroke-linecap:butt;stroke-linejoin:miter;stroke-opacity:1"
       x="51.515457"
       y="27.667744"
       id="text4623"
       sodipodi:linespacing="125%"><tspan
         sodipodi:role="line"
         id="tspan4625"
         x="51.515457"
         y="27.667744"
         style="font-size:3.30729151px;text-align:center;text-anchor:middle">AR</tspan><tspan
         sodipodi:role="line"
         x="51.515457"
         y="31.801859"
         style="font-size:3.30729151px;text-align:center;text-anchor:middle"
         id="tspan4627" /><tspan
         sodipodi:role="line"
         x="51.515457"
         y="35.935974"
         style="font-size:3.30729151px;text-align:center;text-anchor:middle"
         id="tspan4629" /><tspan
         sodipodi:role="line"
         x="51.515457"
         y="40.070087"
         id="tspan4631"
         style="font-size:3.30729151px;text-align:center;text-anchor:middle">TL</tspan><tspan
         sodipodi:role="line"
         x="51.515457"
         y="44.204201"
         style="font-size:3.30729151px;text-align:center;text-anchor:middle"
         id="tspan4633" /><tspan
         sodipodi:role="line"
         x="51.515457"
         y="48.338314"
         style="font-size:3.30729151px;text-align:center;text-anchor:middle"
         id="tspan4635" /><tspan
         sodipodi:role="line"
         x="51.515457"
         y="52.472431"
         id="tspan4637"
         style="font-size:3.30729151px;text-align:center;text-anchor:middle">D1R</tspan><tspan
         sodipodi:role="line"
         x="51.515457"
         y="56.606544"
         style="font-size:3.30729151px;text-align:center;text-anchor:middle"
         id="tspan4639" /><tspan
         sodipodi:role="line"
         x="51.515457"
         y="60.740658"
         style="font-size:3.30729151px;text-align:center;text-anchor:middle"
         id="tspan4641" /><tspan
         sodipodi:role="line"
         x="51.515457"
         y="64.874771"
         id="tspan4643"
         style="font-size:3.30729151px;text-align:center;text-anchor:middle">T1L</tspan><tspan
         sodipodi:role="line"
         x="51.515457"
         y="69.008888"
         style="font-size:3.30729151px;text-align:center;text-anchor:middle"
         id="tspan4645" /><tspan
         sodipodi:role="line"
         x="51.515457"
         y="73.143005"
         style="font-size:3.30729151px;text-align:center;text-anchor:middle"
         id="tspan4647" /><tspan
         sodipodi:role="line"
         x="51.515457"
         y="77.277115"
         id="tspan4649"
         style="font-size:3.30729151px;text-align:center;text-anchor:middle">D2R</tspan><tspan
         sodipodi:role="line"
         x="51.515457"
         y="81.411232"
         style="font-size:3.30729151px;text-align:center;text-anchor:middle"
         id="tspan4651" /><tspan
         sodipodi:role="line"
         x="51.515457"
         y="85.545341"
         style="font-size:3.30729151px;text-align:center;text-anchor:middle"
         id="tspan4653" /><tspan
         sodipodi:role="line"
         x="51.515457"
         y="89.679459"
         id="tspan4655"
         style="font-size:3.30729151px;text-align:center;text-anchor:middle">RR</tspan></text>
    <text
       sodipodi:linespacing="125%"
       id="text4657"
       y="27.667744"
       x="72.682121"
       style="font-style:normal;font-weight:normal;font-size:10.58333302px;line-height:125%;font-family:sans-serif;letter-spacing:0px;word-spacing:0px;fill:#000000;fill-opacity:1;stroke:none;stroke-width:1px;stroke-linecap:butt;stroke-linejoin:miter;stroke-opacity:1"
       xml:space="preserve"><tspan
         style="font-size:3.30729151px;text-align:center;text-anchor:middle"
         y="27.667744"
         x="72.682121"
         id="tspan4659"
         sodipodi:role="line">AR</tspan><tspan
         id="tspan4661"
         style="font-size:3.30729151px;text-align:center;text-anchor:middle"
         y="31.801859"
         x="72.682121"
         sodipodi:role="line" /><tspan
         id="tspan4663"
         style="font-size:3.30729151px;text-align:center;text-anchor:middle"
         y="35.935974"
         x="72.682121"
         sodipodi:role="line" /><tspan
         style="font-size:3.30729151px;text-align:center;text-anchor:middle"
         id="tspan4665"
         y="40.070087"
         x="72.682121"
         sodipodi:role="line">TL</tspan><tspan
         id="tspan4667"
         style="font-size:3.30729151px;text-align:center;text-anchor:middle"
         y="44.204201"
         x="72.682121"
         sodipodi:role="line" /><tspan
         id="tspan4669"
         style="font-size:3.30729151px;text-align:center;text-anchor:middle"
         y="48.338314"
         x="72.682121"
         sodipodi:role="line" /><tspan
         style="font-size:3.30729151px;text-align:center;text-anchor:middle"
         id="tspan4671"
         y="52.472431"
         x="72.682121"
         sodipodi:role="line">D1R</tspan><tspan
         id="tspan4673"
         style="font-size:3.30729151px;text-align:center;text-anchor:middle"
         y="56.606544"
         x="72.682121"
         sodipodi:role="line" /><tspan
         id="tspan4675"
         style="font-size:3.30729151px;text-align:center;text-anchor:middle"
         y="60.740658"
         x="72.682121"
         sodipodi:role="line" /><tspan
         style="font-size:3.30729151px;text-align:center;text-anchor:middle"
         id="tspan4677"
         y="64.874771"
         x="72.682121"
         sodipodi:role="line">T1L</tspan><tspan
         id="tspan4679"
         style="font-size:3.30729151px;text-align:center;text-anchor:middle"
         y="69.008888"
         x="72.682121"
         sodipodi:role="line" /><tspan
         id="tspan4681"
         style="font-size:3.30729151px;text-align:center;text-anchor:middle"
         y="73.143005"
         x="72.682121"
         sodipodi:role="line" /><tspan
         style="font-size:3.30729151px;text-align:center;text-anchor:middle"
         id="tspan4683"
         y="77.277115"
         x="72.682121"
         sodipodi:role="line">D2R</tspan><tspan
         id="tspan4685"
         style="font-size:3.30729151px;text-align:center;text-anchor:middle"
         y="81.411232"
         x="72.682121"
         sodipodi:role="line" /><tspan
         id="tspan4687"
         style="font-size:3.30729151px;text-align:center;text-anchor:middle"
         y="85.545341"
         x="72.682121"
         sodipodi:role="line" /><tspan
         style="font-size:3.30729151px;text-align:center;text-anchor:middle"
         id="tspan4689"
         y="89.679459"
         x="72.682121"
         sodipodi:role="line">RR</tspan></text>
  </g>
</svg>
